<svg width="86" height="90" viewBox="0 0 86 90" fill="none" xmlns="http://www.w3.org/2000/svg">
<g filter="url(#filter0_i_166_11)">
<path d="M24.2513 23.7079L36.1748 13.2618L47.2393 0.443966L63.9535 8.59698L65.6481 11.3565L66.979 18.485L67.8805 24.4276L67.9182 27.6018L82.2062 41.3366L83.4853 44.1006L85.2317 51.2246L84.4669 56.7884L82.4419 61.1753L73.4213 71.1933L63.9571 78.8351L50.3485 87.3153L47.0349 88.1447L29.5888 88.3329L27.0871 87.5663L22.9333 87.6111L18.7795 87.6559L16.7167 88.8686L13.3983 89.3013L8.40433 88.5615L2.57956 87.8307L0.502645 87.8531L3.72671 79.485L12.5823 55.5799L24.2513 23.7079Z" fill="#DCFFA3"/>
</g>
<defs>
<filter id="filter0_i_166_11" x="0.502686" y="0.44397" width="84.729" height="92.8573" filterUnits="userSpaceOnUse" color-interpolation-filters="sRGB">
<feFlood flood-opacity="0" result="BackgroundImageFix"/>
<feBlend mode="normal" in="SourceGraphic" in2="BackgroundImageFix" result="shape"/>
<feColorMatrix in="SourceAlpha" type="matrix" values="0 0 0 0 0 0 0 0 0 0 0 0 0 0 0 0 0 0 127 0" result="hardAlpha"/>
<feOffset dy="4"/>
<feGaussianBlur stdDeviation="2"/>
<feComposite in2="hardAlpha" operator="arithmetic" k2="-1" k3="1"/>
<feColorMatrix type="matrix" values="0 0 0 0 0 0 0 0 0 0 0 0 0 0 0 0 0 0 0.25 0"/>
<feBlend mode="normal" in2="shape" result="effect1_innerShadow_166_11"/>
</filter>
</defs>
</svg>
