<svg width="140" height="128" viewBox="0 0 140 128" fill="none" xmlns="http://www.w3.org/2000/svg">
<g filter="url(#filter0_i_166_16)">
<path d="M0.716064 10.8747L24.8098 0.161072H33.5333L74.2434 4.12908L82.5516 12.0651L89.6135 26.3499L86.7057 29.1275L97.5063 44.2059L101.66 47.3803L97.0909 54.1259L86.7057 51.3483H85.4594L77.1512 61.2683L78.3975 71.5852L81.7207 78.3308L82.1362 86.2668L85.4594 89.0444L94.5984 92.2188L97.5063 100.155L99.9987 102.139L109.969 99.3612L116.615 100.552L125.754 98.9644L134.478 100.948L139.047 103.726L134.478 103.908L120.354 104.123L115.369 104.916L113.292 105.313V108.091V108.884L115.369 109.678L117.861 110.472L115.784 113.646L114.123 114.836L113.707 117.217L115.784 120.392H122.846L124.508 119.201L127 118.804L129.908 119.598L131.154 121.185L134.478 119.995L135.724 119.598L136.555 120.392L138.216 123.169V125.153L137.801 125.947L136.555 127.137L134.893 127.931L131.57 127.534L115.784 124.756L101.66 124.36L96.26 123.963L80.8899 98.1708L77.1512 90.6316L75.0742 82.6956L69.6739 69.2044L60.1195 55.7131L57.627 53.7291L59.7041 50.9515L44.334 37.0635L40.1799 33.8891L23.1481 27.1435L4.03933 30.7147L2.79311 29.9211L0.716064 10.8747Z" fill="#B8B8B8" fill-opacity="0.5"/>
</g>
<defs>
<filter id="filter0_i_166_16" x="0.716064" y="0.161072" width="138.331" height="131.77" filterUnits="userSpaceOnUse" color-interpolation-filters="sRGB">
<feFlood flood-opacity="0" result="BackgroundImageFix"/>
<feBlend mode="normal" in="SourceGraphic" in2="BackgroundImageFix" result="shape"/>
<feColorMatrix in="SourceAlpha" type="matrix" values="0 0 0 0 0 0 0 0 0 0 0 0 0 0 0 0 0 0 127 0" result="hardAlpha"/>
<feOffset dy="4"/>
<feGaussianBlur stdDeviation="2"/>
<feComposite in2="hardAlpha" operator="arithmetic" k2="-1" k3="1"/>
<feColorMatrix type="matrix" values="0 0 0 0 0 0 0 0 0 0 0 0 0 0 0 0 0 0 0.25 0"/>
<feBlend mode="normal" in2="shape" result="effect1_innerShadow_166_16"/>
</filter>
</defs>
</svg>
