<svg width="137" height="174" viewBox="0 0 137 174" fill="none" xmlns="http://www.w3.org/2000/svg">
<g filter="url(#filter0_i_166_5)">
<path d="M54.0114 164.752L56.9193 160.784L69.7969 152.451L73.951 155.626L83.09 147.69L95.5523 135.389L98.8755 129.437L104.276 109.993L108.43 92.5343L113.415 82.6143L115.076 73.4878L121.723 63.171L125.877 52.0606L130.031 41.7438L132.108 35.395V22.3006L136.678 10.3966L132.108 8.01577L113.415 4.44457L90.9828 0.476562L88.9057 4.44457L86.4133 10.3966L81.4284 15.1582L47.3649 46.1086L44.0416 49.283H35.318L24.9328 53.251L16.6246 54.8382L9.9781 61.5838L3.33156 69.5198L0.839111 73.4878V75.4718L13.7168 82.6143L16.6246 88.5663L17.8709 94.9151L20.3633 101.264L22.025 108.803L23.2712 113.565L20.3633 123.485V127.453L23.2712 135.389L28.6715 147.69L29.9177 152.451V160.784L32.4102 167.133L44.0416 173.482L54.0114 164.752Z" fill="#DCFFA3"/>
</g>
<defs>
<filter id="filter0_i_166_5" x="0.839111" y="0.476562" width="135.839" height="177.005" filterUnits="userSpaceOnUse" color-interpolation-filters="sRGB">
<feFlood flood-opacity="0" result="BackgroundImageFix"/>
<feBlend mode="normal" in="SourceGraphic" in2="BackgroundImageFix" result="shape"/>
<feColorMatrix in="SourceAlpha" type="matrix" values="0 0 0 0 0 0 0 0 0 0 0 0 0 0 0 0 0 0 127 0" result="hardAlpha"/>
<feOffset dy="4"/>
<feGaussianBlur stdDeviation="2"/>
<feComposite in2="hardAlpha" operator="arithmetic" k2="-1" k3="1"/>
<feColorMatrix type="matrix" values="0 0 0 0 0 0 0 0 0 0 0 0 0 0 0 0 0 0 0.25 0"/>
<feBlend mode="normal" in2="shape" result="effect1_innerShadow_166_5"/>
</filter>
</defs>
</svg>
