<svg width="128" height="55" viewBox="0 0 128 55" fill="none" xmlns="http://www.w3.org/2000/svg">
<g filter="url(#filter0_i_1323_2)">
<path d="M14.9647 25.3865C17.293 19.5025 23.4778 14.9948 28.2735 10.6944C29.226 9.84028 29.2684 9.56421 28.0514 10.4646C23.373 13.9257 18.7981 17.5123 14.1618 21.0202C13.4674 21.5456 9.21583 25.6273 8.09678 25.3405C7.62723 25.2202 9.01401 23.1798 9.10477 23.0425C9.90663 21.8291 9.88892 20.4815 10.6765 19.3044C12.1075 17.1658 12.8158 14.8046 14.5205 12.8392C15.3259 11.9106 15.9545 12.1498 14.4864 12.1498C13.004 12.1498 11.0203 12.4983 9.60021 12.1345C9.08886 12.0035 10.2822 11.6239 10.3519 11.5983C12.8713 10.6714 16.4292 11.0144 19.0992 10.6484C23.42 10.0562 27.7548 9.35578 31.9809 8.35037C32.3526 8.26193 34.0995 7.57224 34.031 8.41165C33.9263 9.69472 33.0609 11.0344 32.4592 12.1498C30.2851 16.18 27.84 20.0938 25.4204 24.0077C21.7454 29.9523 18.0119 35.8526 14.5547 41.9017C14.4803 42.0319 14.3202 42.4165 14.4522 42.3307C15.0522 41.9406 15.5307 41.4188 16.0581 40.9519C19.3888 38.0034 22.7569 35.0907 26.138 32.1887C33.8288 25.5876 41.4177 18.8024 49.3728 12.4562C50.1832 11.8098 53.6773 9.1805 51.5255 11.9047C46.359 18.4453 39.6858 24.0883 34.0652 30.3196C31.5994 33.0533 29.2079 35.8412 26.8555 38.6538C26.7278 38.8066 24.7398 41.3292 25.1129 41.0438C32.6547 35.2753 38.8973 27.9155 45.4776 21.3113C47.6064 19.1748 49.697 16.9561 51.9697 14.9381C52.3469 14.6031 53.5977 13.9322 53.4389 14.3866C52.7704 16.2993 51.013 18.1885 49.7487 19.7793C47.504 22.6036 45.0164 25.2508 42.6074 27.9603C41.3304 29.3966 39.9935 30.8454 38.8488 32.3725C38.3448 33.0449 40.4057 31.5384 41.104 31.0244C47.0991 26.6112 52.8754 21.9292 58.9743 17.6344C59.7959 17.0559 60.7489 16.2616 61.7249 15.8726C62.6381 15.5087 61.1687 17.6242 60.6144 18.3698C56.6992 23.6362 51.8195 28.4277 47.2373 33.2305C46.2416 34.2741 45.261 35.3392 44.2304 36.3558C44.2119 36.3741 43.3524 37.1585 44.0083 36.5703C48.5105 32.533 53.0497 28.5153 57.6076 24.5286C60.0718 22.3731 67.5909 16.0974 65.4835 18.5383C63.9632 20.2992 61.9898 21.8123 60.2556 23.3949C57.4611 25.9452 54.7312 28.5515 51.9355 31.101C49.1161 33.6721 45.8921 35.9583 43.1541 38.5772C42.6648 39.0452 42.2949 39.432 41.6507 39.7569C40.0197 40.5796 38.4292 41.4559 36.8328 42.3307C35.907 42.8381 36.582 42.6191 37.1233 42.346C39.7176 41.0374 42.2546 39.6476 44.6575 38.0564C51.7894 33.3336 58.8794 28.5939 65.2443 23.0272C68.5491 20.1368 72.0786 17.4654 75.3412 14.5398C76.0076 13.9422 77.3432 12.1498 78.4335 12.1498C78.6641 12.1498 78.1929 12.5032 78.0577 12.6707C76.7744 14.2597 75.1206 15.6247 73.6499 17.0676C66.6329 23.9515 60.2165 31.2798 54.1565 38.853C52.2098 41.2858 50.1234 43.6194 48.4844 46.1914C48.4075 46.3121 47.9608 47.0274 48.399 46.5438C50.3336 44.4087 53.0332 42.6443 55.4378 40.9672C61.0359 37.0628 66.6892 33.2418 72.7615 29.9519C76.1834 28.098 79.4549 25.9192 82.4825 23.5787C84.9825 21.6461 92.3151 15.6836 89.7605 17.5578C80.042 24.6883 71.9095 33.5826 63.9459 42.2541C62.9216 43.3694 60.5632 45.2415 60.1873 46.7583C60.0293 47.3959 60.9211 46.5835 61.1099 46.4672C67.1772 42.7266 74.1882 40.1908 81.0133 37.7959C81.575 37.5988 86.3094 36.3655 86.3094 36.9686C86.3094 38.0359 84.7915 39.9512 84.1568 40.8293C83.5015 41.7359 82.7511 42.7615 82.38 43.8015C82.2227 44.2424 84.3438 43.1492 84.601 43.0354C90.3552 40.4908 95.0386 37.3616 99.157 32.8934C102.527 29.2373 105.164 24.928 108.758 21.5258C109.426 20.8934 111.264 20.0189 111.646 19.335C111.847 18.9745 110.748 19.4155 110.313 19.5188C108.156 20.0321 106.096 20.9603 104.163 21.9394C97.5702 25.2789 91.3492 29.6643 85.3869 33.8433C83.8487 34.9214 79.5663 38.3048 80.5349 36.7848C80.8835 36.2377 81.7883 35.7547 82.2604 35.314C84.092 33.6046 85.6987 31.7051 87.437 29.9213C92.1216 25.1141 99.2123 17.3893 107.187 17.3893C108.392 17.3893 105.795 17.393 105.376 17.5272C103.547 18.1127 102.013 18.9394 100.353 19.9478C99.1581 20.6736 82.9018 29.9497 82.6363 29.3544C82.4074 28.8414 83.7603 28.1224 84.003 27.7305C84.7155 26.5805 87.4192 25.7134 88.5304 24.8656C92.9233 21.514 96.6741 17.6703 101.275 14.5091C101.804 14.1461 108.292 9.09641 108.998 9.7292C109.01 9.74073 108.758 10.3547 108.758 10.4952C108.758 11.9335 107.074 12.2363 106.674 13.5286C106.374 14.4982 104.402 18.7935 105.137 19.5342C105.204 19.6018 112.874 14.1825 113.679 13.6512C114.993 12.7838 116.525 12.0378 117.984 11.3838C118.457 11.1718 118.956 10.9917 119.453 10.8323C119.641 10.7723 120 10.4394 120 10.6178C120 11.1691 117.972 12.7083 117.608 13.0384C115.954 14.5403 114.302 16.0119 112.756 17.6038C111.162 19.2448 108.8 20.1823 107.289 21.9241C105.954 23.4629 104.269 25.4686 103.531 27.3169C103.163 28.2374 102.637 30.9018 101.31 30.9018C95.849 30.9018 90.3245 26.2682 87.3003 22.5676C85.9089 20.865 82.8774 16.3607 84.0885 14.0801C84.8264 12.6906 85.6573 11.386 86.5486 10.0662C86.8842 9.56942 87.0823 8.72737 87.6079 8.35037C88.138 7.97007 89.9216 8.28909 90.6147 8.28909C93.1631 8.28909 95.622 8.18263 97.9269 9.33087C99.3454 10.0375 98.9999 9.72282 98.6103 10.771" stroke="#91BFAC" stroke-opacity="0.59" stroke-width="16" stroke-linecap="round"/>
</g>
<path d="M29.2173 23H27.7158V13.9985H22.4058V12.4971H34.5273V13.9985H29.2173V23ZM44.6787 18.8618C44.6787 19.4331 44.5884 19.9702 44.4077 20.4731C44.2271 20.9712 43.9683 21.4082 43.6313 21.7842C43.2993 22.1602 42.8989 22.458 42.4302 22.6777C41.9663 22.8926 41.4487 23 40.8774 23H38.27C37.6987 23 37.1787 22.8926 36.71 22.6777C36.2412 22.458 35.8384 22.1602 35.5015 21.7842C35.1694 21.4082 34.9131 20.9712 34.7324 20.4731C34.5518 19.9702 34.4614 19.4331 34.4614 18.8618C34.4614 18.2954 34.5518 17.7632 34.7324 17.2651C34.9131 16.7671 35.1694 16.3325 35.5015 15.9614C35.8384 15.5854 36.2412 15.29 36.71 15.0752C37.1787 14.8604 37.6987 14.7529 38.27 14.7529H40.8774C41.4487 14.7529 41.9663 14.8604 42.4302 15.0752C42.8989 15.29 43.2993 15.5854 43.6313 15.9614C43.9683 16.3325 44.2271 16.7671 44.4077 17.2651C44.5884 17.7632 44.6787 18.2954 44.6787 18.8618ZM43.1772 18.8618C43.1772 18.5005 43.1235 18.1611 43.0161 17.8438C42.9136 17.5215 42.7622 17.2432 42.562 17.0088C42.3667 16.7695 42.1274 16.5815 41.8442 16.4448C41.561 16.3032 41.2388 16.2324 40.8774 16.2324H38.27C37.9087 16.2324 37.584 16.3032 37.2959 16.4448C37.0127 16.5815 36.771 16.7695 36.5708 17.0088C36.3755 17.2432 36.2241 17.5215 36.1167 17.8438C36.0142 18.1611 35.9629 18.5005 35.9629 18.8618C35.9629 19.2231 36.0142 19.5649 36.1167 19.8872C36.2241 20.2046 36.3755 20.4829 36.5708 20.7222C36.771 20.9614 37.0127 21.1519 37.2959 21.2935C37.584 21.4302 37.9087 21.4985 38.27 21.4985H40.8774C41.2388 21.4985 41.561 21.4302 41.8442 21.2935C42.1274 21.1519 42.3667 20.9614 42.562 20.7222C42.7622 20.4829 42.9136 20.2046 43.0161 19.8872C43.1235 19.5649 43.1772 19.2231 43.1772 18.8618ZM55.2476 14.7529V18.8765C55.2476 19.4478 55.1401 19.9849 54.9253 20.4878C54.7104 20.9858 54.415 21.4229 54.0391 21.7988C53.668 22.1699 53.2334 22.4629 52.7354 22.6777C52.2373 22.8926 51.7051 23 51.1387 23H50.311C49.7446 23 49.2124 22.8926 48.7144 22.6777C48.2163 22.458 47.7793 22.1626 47.4033 21.7915C47.0322 21.4155 46.7393 20.9785 46.5244 20.4805C46.3096 19.9775 46.2021 19.4429 46.2021 18.8765V14.7529H47.7036V18.8765C47.7036 19.2378 47.772 19.5796 47.9087 19.9019C48.0454 20.2192 48.231 20.4976 48.4653 20.7368C48.7046 20.9712 48.9805 21.1567 49.293 21.2935C49.6104 21.4302 49.9497 21.4985 50.311 21.4985H51.1387C51.5 21.4985 51.8394 21.4302 52.1567 21.2935C52.4741 21.1567 52.75 20.9712 52.9844 20.7368C53.2188 20.4976 53.4043 20.2192 53.541 19.9019C53.6777 19.5796 53.7461 19.2378 53.7461 18.8765V14.7529H55.2476ZM66.9883 23H64.9448L62.6011 20.7661H59.5615V19.2793H63.7144C63.9243 19.2793 64.1221 19.2378 64.3076 19.1548C64.4932 19.0718 64.6543 18.9619 64.791 18.8252C64.9277 18.6836 65.0352 18.52 65.1133 18.3345C65.1914 18.1489 65.2305 17.9536 65.2305 17.7485C65.2305 17.5386 65.1914 17.3433 65.1133 17.1626C65.0352 16.9771 64.9277 16.8159 64.791 16.6792C64.6543 16.5425 64.4932 16.4351 64.3076 16.3569C64.1221 16.2739 63.9243 16.2324 63.7144 16.2324H58.7778V23H57.2764V14.7529H63.7144C64.1294 14.7529 64.52 14.8335 64.8862 14.9946C65.2524 15.1509 65.5698 15.3657 65.8384 15.6392C66.1118 15.9077 66.3267 16.2251 66.4829 16.5913C66.6392 16.9526 66.7173 17.3384 66.7173 17.7485C66.7173 18.0854 66.6636 18.4102 66.5562 18.7227C66.4487 19.0303 66.2974 19.3135 66.1021 19.5723C65.9116 19.8262 65.6846 20.0459 65.4209 20.2314C65.1572 20.417 64.8691 20.5537 64.5566 20.6416L66.9883 23ZM69.9839 23H68.4971V14.7529H69.9839V23ZM81.1899 20.5684C81.1899 20.9053 81.1265 21.2227 80.9995 21.5205C80.8726 21.8135 80.6992 22.0698 80.4795 22.2896C80.2646 22.5093 80.0083 22.6826 79.7104 22.8096C79.4175 22.9365 79.1025 23 78.7656 23H71.7563V21.4985H78.7656C78.8975 21.4985 79.0195 21.4766 79.1318 21.4326C79.249 21.3838 79.3491 21.3179 79.4321 21.2349C79.52 21.147 79.5884 21.0469 79.6372 20.9346C79.686 20.8223 79.7104 20.7002 79.7104 20.5684C79.7104 20.4365 79.686 20.3145 79.6372 20.2021C79.5884 20.085 79.52 19.9849 79.4321 19.9019C79.3491 19.814 79.249 19.7456 79.1318 19.6968C79.0195 19.6479 78.8975 19.6235 78.7656 19.6235H74.1733C73.8413 19.6235 73.5288 19.5601 73.2358 19.4331C72.9429 19.3062 72.6865 19.1328 72.4668 18.9131C72.2471 18.6885 72.0737 18.4272 71.9468 18.1294C71.8198 17.8315 71.7563 17.5142 71.7563 17.1772C71.7563 16.8501 71.8198 16.54 71.9468 16.2471C72.0737 15.9492 72.2471 15.6904 72.4668 15.4707C72.6865 15.251 72.9429 15.0776 73.2358 14.9507C73.5288 14.8188 73.8413 14.7529 74.1733 14.7529H80.6406V16.2324H74.1733C74.0464 16.2324 73.9243 16.2593 73.8071 16.313C73.6948 16.3618 73.5972 16.4302 73.5142 16.5181C73.4312 16.6011 73.3652 16.7012 73.3164 16.8184C73.2676 16.9307 73.2432 17.0503 73.2432 17.1772C73.2432 17.3091 73.2676 17.4336 73.3164 17.5508C73.3652 17.6631 73.4312 17.7632 73.5142 17.8511C73.5972 17.9341 73.6948 18 73.8071 18.0488C73.9243 18.0977 74.0464 18.1221 74.1733 18.1221H78.7656C79.1025 18.1221 79.4175 18.188 79.7104 18.3198C80.0083 18.4468 80.2646 18.6226 80.4795 18.8472C80.6992 19.0669 80.8726 19.3257 80.9995 19.6235C81.1265 19.9214 81.1899 20.2363 81.1899 20.5684ZM87.313 23H85.8115V16.2324H81.8418V14.7529H91.2754V16.2324H87.313V23ZM94.4321 13.6543C94.4224 13.9033 94.3833 14.1401 94.3149 14.3647C94.2515 14.5894 94.1807 14.7871 94.1025 14.958C94.0146 15.1582 93.9146 15.3486 93.8022 15.5293L92.8354 15.5146C92.8696 15.4512 92.9038 15.3804 92.938 15.3022C92.9673 15.2339 92.999 15.1533 93.0332 15.0605C93.0723 14.9678 93.1064 14.8604 93.1357 14.7383C93.0039 14.7188 92.8794 14.6772 92.7622 14.6138C92.645 14.5454 92.5425 14.4624 92.4546 14.3647C92.3667 14.2622 92.2983 14.1475 92.2495 14.0205C92.2007 13.8887 92.1763 13.752 92.1763 13.6104C92.1763 13.459 92.2056 13.3149 92.2642 13.1782C92.3228 13.0415 92.4033 12.9219 92.5059 12.8193C92.6084 12.7168 92.728 12.6362 92.8647 12.5776C93.0015 12.5142 93.1479 12.4824 93.3042 12.4824C93.4556 12.4824 93.5996 12.5142 93.7363 12.5776C93.873 12.6362 93.9927 12.7192 94.0952 12.8267C94.1978 12.9292 94.2783 13.0513 94.3369 13.1929C94.4004 13.3345 94.4321 13.4883 94.4321 13.6543ZM105.257 20.5684C105.257 20.9053 105.194 21.2227 105.067 21.5205C104.94 21.8135 104.767 22.0698 104.547 22.2896C104.332 22.5093 104.076 22.6826 103.778 22.8096C103.485 22.9365 103.17 23 102.833 23H95.8237V21.4985H102.833C102.965 21.4985 103.087 21.4766 103.199 21.4326C103.316 21.3838 103.417 21.3179 103.5 21.2349C103.587 21.147 103.656 21.0469 103.705 20.9346C103.753 20.8223 103.778 20.7002 103.778 20.5684C103.778 20.4365 103.753 20.3145 103.705 20.2021C103.656 20.085 103.587 19.9849 103.5 19.9019C103.417 19.814 103.316 19.7456 103.199 19.6968C103.087 19.6479 102.965 19.6235 102.833 19.6235H98.2407C97.9087 19.6235 97.5962 19.5601 97.3032 19.4331C97.0103 19.3062 96.7539 19.1328 96.5342 18.9131C96.3145 18.6885 96.1411 18.4272 96.0142 18.1294C95.8872 17.8315 95.8237 17.5142 95.8237 17.1772C95.8237 16.8501 95.8872 16.54 96.0142 16.2471C96.1411 15.9492 96.3145 15.6904 96.5342 15.4707C96.7539 15.251 97.0103 15.0776 97.3032 14.9507C97.5962 14.8188 97.9087 14.7529 98.2407 14.7529H104.708V16.2324H98.2407C98.1138 16.2324 97.9917 16.2593 97.8745 16.313C97.7622 16.3618 97.6646 16.4302 97.5815 16.5181C97.4985 16.6011 97.4326 16.7012 97.3838 16.8184C97.335 16.9307 97.3105 17.0503 97.3105 17.1772C97.3105 17.3091 97.335 17.4336 97.3838 17.5508C97.4326 17.6631 97.4985 17.7632 97.5815 17.8511C97.6646 17.9341 97.7622 18 97.8745 18.0488C97.9917 18.0977 98.1138 18.1221 98.2407 18.1221H102.833C103.17 18.1221 103.485 18.188 103.778 18.3198C104.076 18.4468 104.332 18.6226 104.547 18.8472C104.767 19.0669 104.94 19.3257 105.067 19.6235C105.194 19.9214 105.257 20.2363 105.257 20.5684ZM54.3027 41H47.5425C46.8149 41 46.1533 40.8633 45.5576 40.5898C44.9619 40.3164 44.4517 39.9429 44.0269 39.4692C43.6069 38.9956 43.2822 38.439 43.0527 37.7993C42.8232 37.1597 42.7085 36.4761 42.7085 35.7485C42.7085 35.0259 42.8232 34.3472 43.0527 33.7124C43.2822 33.0728 43.6069 32.5161 44.0269 32.0425C44.4517 31.564 44.9619 31.188 45.5576 30.9146C46.1533 30.6362 46.8149 30.4971 47.5425 30.4971H54.3027V31.9985H47.5425C47.0249 31.9985 46.5586 32.0986 46.1436 32.2988C45.7334 32.4941 45.3843 32.7627 45.0962 33.1045C44.813 33.4414 44.5933 33.8369 44.437 34.291C44.2856 34.7451 44.21 35.231 44.21 35.7485C44.21 36.2661 44.2856 36.7544 44.437 37.2134C44.5933 37.6675 44.813 38.0654 45.0962 38.4072C45.3843 38.7441 45.7334 39.0103 46.1436 39.2056C46.5586 39.4009 47.0249 39.4985 47.5425 39.4985H52.8013V36.5029H46.4438V35.0015H54.3027V41ZM65.2378 32.7529V36.8765C65.2378 37.4478 65.1304 37.9849 64.9155 38.4878C64.7007 38.9858 64.4053 39.4229 64.0293 39.7988C63.6582 40.1699 63.2236 40.4629 62.7256 40.6777C62.2275 40.8926 61.6953 41 61.1289 41H60.3013C59.7349 41 59.2026 40.8926 58.7046 40.6777C58.2065 40.458 57.7695 40.1626 57.3936 39.7915C57.0225 39.4155 56.7295 38.9785 56.5146 38.4805C56.2998 37.9775 56.1924 37.4429 56.1924 36.8765V32.7529H57.6938V36.8765C57.6938 37.2378 57.7622 37.5796 57.8989 37.9019C58.0356 38.2192 58.2212 38.4976 58.4556 38.7368C58.6948 38.9712 58.9707 39.1567 59.2832 39.2935C59.6006 39.4302 59.9399 39.4985 60.3013 39.4985H61.1289C61.4902 39.4985 61.8296 39.4302 62.147 39.2935C62.4644 39.1567 62.7402 38.9712 62.9746 38.7368C63.209 38.4976 63.3945 38.2192 63.5312 37.9019C63.668 37.5796 63.7363 37.2378 63.7363 36.8765V32.7529H65.2378ZM68.7534 41H67.2666V32.7529H68.7534V41ZM80.6992 36.8472C80.6992 37.4282 80.6064 37.9727 80.4209 38.4805C80.2354 38.9834 79.9741 39.4229 79.6372 39.7988C79.3003 40.1699 78.8926 40.4629 78.4141 40.6777C77.9404 40.8926 77.4155 41 76.8394 41H73.1553V39.4839H76.8394C77.2056 39.4839 77.5327 39.4155 77.8208 39.2788C78.1089 39.1421 78.353 38.9565 78.5532 38.7222C78.7583 38.4829 78.9146 38.2046 79.022 37.8872C79.1294 37.5649 79.1831 37.2183 79.1831 36.8472C79.1831 36.481 79.1294 36.1392 79.022 35.8218C78.9146 35.5044 78.7583 35.2285 78.5532 34.9941C78.353 34.7598 78.1089 34.5742 77.8208 34.4375C77.5327 34.3008 77.2056 34.2324 76.8394 34.2324H72.4448V41H70.9141V32.7236H76.8394C77.4155 32.7236 77.9404 32.8311 78.4141 33.0459C78.8926 33.2607 79.3003 33.5537 79.6372 33.9248C79.9741 34.2959 80.2354 34.7329 80.4209 35.2358C80.6064 35.7339 80.6992 36.271 80.6992 36.8472ZM90.9824 41H82.3691V32.7236H90.9824V34.2324H83.8853V39.4839H90.9824V41ZM90.0229 37.5796H84.5957V36.0635H90.0229V37.5796Z" fill="#144A43"/>
<defs>
<filter id="filter0_i_1323_2" x="0.000610352" y="0.000244141" width="127.999" height="58.9992" filterUnits="userSpaceOnUse" color-interpolation-filters="sRGB">
<feFlood flood-opacity="0" result="BackgroundImageFix"/>
<feBlend mode="normal" in="SourceGraphic" in2="BackgroundImageFix" result="shape"/>
<feColorMatrix in="SourceAlpha" type="matrix" values="0 0 0 0 0 0 0 0 0 0 0 0 0 0 0 0 0 0 127 0" result="hardAlpha"/>
<feOffset dy="4"/>
<feGaussianBlur stdDeviation="2"/>
<feComposite in2="hardAlpha" operator="arithmetic" k2="-1" k3="1"/>
<feColorMatrix type="matrix" values="0 0 0 0 0 0 0 0 0 0 0 0 0 0 0 0 0 0 0.25 0"/>
<feBlend mode="normal" in2="shape" result="effect1_innerShadow_1323_2"/>
</filter>
</defs>
</svg>
