<svg width="177" height="81" viewBox="0 0 177 81" fill="none" xmlns="http://www.w3.org/2000/svg">
<g filter="url(#filter0_i_168_69)">
<path d="M24.1412 37.7362C27.1971 30.0417 35.3147 24.1471 41.609 18.5234C42.8591 17.4065 42.9148 17.0455 41.3175 18.2229C35.1771 22.749 29.1725 27.4391 23.0873 32.0265C22.1759 32.7135 16.5958 38.051 15.127 37.6761C14.5107 37.5188 16.3309 34.8506 16.45 34.671C17.5025 33.0842 17.4792 31.322 18.513 29.7826C20.391 26.986 21.3208 23.8984 23.5582 21.3282C24.6153 20.1139 25.4403 20.4267 23.5134 20.4267C21.5677 20.4267 18.9641 20.8824 17.1003 20.4066C16.4291 20.2353 17.9954 19.739 18.0869 19.7054C21.3935 18.4934 26.0633 18.9418 29.5677 18.4633C35.2388 17.6889 40.9282 16.7729 46.4749 15.4582C46.9628 15.3425 49.2556 14.4406 49.1657 15.5383C49.0283 17.2162 47.8925 18.968 47.1027 20.4267C44.2492 25.697 41.04 30.815 37.8643 35.9331C33.0408 43.7069 28.1406 51.4227 23.6031 59.333C23.5054 59.5032 23.2952 60.0063 23.4685 59.894C24.256 59.3839 24.8841 58.7015 25.5763 58.0909C29.9479 54.2352 34.3684 50.4263 38.8061 46.6314C48.9003 37.9992 58.8607 29.1262 69.3019 20.8273C70.3654 19.982 74.9515 16.5437 72.1272 20.1061C65.3462 28.6592 56.5877 36.0386 49.2105 44.1872C45.9742 47.762 42.8354 51.4077 39.7479 55.0858C39.5802 55.2856 36.971 58.5843 37.4607 58.2111C47.3593 50.6677 55.5527 41.0433 64.1893 32.4071C66.9833 29.6132 69.7273 26.7119 72.7102 24.0729C73.2054 23.6348 74.847 22.7575 74.6386 23.3516C73.7611 25.8529 71.4545 28.3234 69.7952 30.4037C66.8491 34.097 63.5841 37.5588 60.4222 41.1019C58.7461 42.9802 56.9914 44.8747 55.4891 46.8718C54.8276 47.7511 57.5324 45.781 58.4489 45.1088C66.3176 39.3377 73.8989 33.2152 81.9038 27.5989C82.9821 26.8424 84.2329 25.8036 85.5139 25.295C86.7125 24.819 84.784 27.5855 84.0564 28.5605C78.9177 35.4473 72.5131 41.7131 66.4989 47.9937C65.1921 49.3584 63.9051 50.7513 62.5524 52.0807C62.5281 52.1046 61.4 53.1304 62.2609 52.3612C68.1701 47.0816 74.1277 41.8277 80.1099 36.6143C83.3443 33.7956 93.213 25.5889 90.4471 28.7809C88.4517 31.0836 85.8616 33.0622 83.5855 35.1318C79.9176 38.4668 76.3346 41.875 72.6654 45.2089C68.9649 48.5711 64.7334 51.5608 61.1398 54.9856C60.4976 55.5976 60.012 56.1033 59.1665 56.5283C57.0259 57.6041 54.9383 58.75 52.8431 59.894C51.628 60.5575 52.5139 60.2711 53.2243 59.914C56.6294 58.2028 59.9591 56.3853 63.113 54.3045C72.4736 48.1286 81.7792 41.9305 90.1331 34.6509C94.4708 30.8712 99.1032 27.3779 103.385 23.552C104.26 22.7706 106.013 20.4267 107.444 20.4267C107.747 20.4267 107.128 20.8888 106.951 21.1078C105.266 23.1858 103.096 24.9708 101.165 26.8576C91.9557 35.8597 83.5341 45.4428 75.5804 55.3462C73.0253 58.5276 70.287 61.5792 68.1358 64.9426C68.0349 65.1005 67.4486 66.0359 68.0237 65.4034C70.5628 62.6113 74.1061 60.3041 77.2621 58.111C84.6096 53.0052 92.0295 48.0085 99.9994 43.7064C104.491 41.282 108.785 38.4328 112.758 35.3722C116.039 32.8449 125.664 25.0478 122.311 27.4987C109.555 36.8231 98.8812 48.4542 88.429 59.7938C87.0846 61.2523 83.9892 63.7004 83.4958 65.6839C83.2884 66.5178 84.459 65.4554 84.7067 65.3032C92.6701 60.4117 101.872 57.0957 110.83 53.9639C111.567 53.7061 117.781 52.0933 117.781 52.882C117.781 54.2777 115.789 56.7824 114.956 57.9307C114.096 59.1162 113.111 60.4574 112.624 61.8173C112.417 62.3939 115.201 60.9643 115.539 60.8156C123.091 57.488 129.238 53.396 134.644 47.5529C139.066 42.7718 142.528 37.1366 147.245 32.6876C148.122 31.8606 150.534 30.7171 151.035 29.8227C151.299 29.3513 149.856 29.928 149.286 30.0631C146.454 30.7343 143.75 31.9481 141.214 33.2285C132.561 37.5955 124.396 43.3303 116.57 48.7951C114.551 50.2049 108.931 54.6293 110.202 52.6416C110.66 51.9262 111.847 51.2946 112.467 50.7183C114.871 48.4829 116.98 45.999 119.261 43.6663C125.41 37.38 134.716 27.2783 145.182 27.2783C146.765 27.2783 143.356 27.2832 142.806 27.4587C140.406 28.2243 138.392 29.3053 136.213 30.6241C134.645 31.5731 113.309 43.7034 112.96 42.925C112.66 42.2541 114.435 41.3139 114.754 40.8014C115.689 39.2975 119.238 38.1637 120.696 37.055C126.462 32.6721 131.385 27.6458 137.424 23.5119C138.117 23.0372 146.633 16.4338 147.559 17.2613C147.576 17.2763 147.245 18.0793 147.245 18.263C147.245 20.1438 145.035 20.5398 144.51 22.2297C144.116 23.4976 141.528 29.1146 142.492 30.0831C142.58 30.1716 152.647 23.0848 153.703 22.39C155.428 21.2558 157.439 20.2803 159.354 19.4249C159.974 19.1478 160.629 18.9122 161.282 18.7037C161.528 18.6253 162 18.19 162 18.4232C162 19.1442 159.338 21.157 158.861 21.5886C156.69 23.5527 154.522 25.4771 152.492 27.5588C150.401 29.7047 147.3 30.9307 145.317 33.2085C143.565 35.2207 141.354 37.8436 140.384 40.2605C139.901 41.4643 139.211 44.9485 137.469 44.9485C130.302 44.9485 123.051 38.8891 119.082 34.0499C117.255 31.8234 113.277 25.9333 114.866 22.951C115.835 21.1339 116.925 19.4279 118.095 17.702C118.535 17.0523 118.796 15.9512 119.485 15.4582C120.181 14.9609 122.522 15.378 123.432 15.378C126.777 15.378 130.004 15.2388 133.029 16.7404C134.891 17.6645 134.437 17.2529 133.926 18.6236" stroke="#425E78" stroke-opacity="0.59" stroke-width="29" stroke-linecap="round"/>
</g>
<path d="M36.623 34H34.6211V21.998H27.541V19.9961H43.7031V21.998H36.623V34ZM57.2383 28.4824C57.2383 29.2441 57.1178 29.9603 56.877 30.6309C56.6361 31.2949 56.291 31.8776 55.8418 32.3789C55.3991 32.8802 54.8652 33.2773 54.2402 33.5703C53.6217 33.8568 52.9316 34 52.1699 34H48.6934C47.9316 34 47.2383 33.8568 46.6133 33.5703C45.9883 33.2773 45.4512 32.8802 45.002 32.3789C44.5592 31.8776 44.2174 31.2949 43.9766 30.6309C43.7357 29.9603 43.6152 29.2441 43.6152 28.4824C43.6152 27.7272 43.7357 27.0176 43.9766 26.3535C44.2174 25.6895 44.5592 25.11 45.002 24.6152C45.4512 24.1139 45.9883 23.7201 46.6133 23.4336C47.2383 23.1471 47.9316 23.0039 48.6934 23.0039H52.1699C52.9316 23.0039 53.6217 23.1471 54.2402 23.4336C54.8652 23.7201 55.3991 24.1139 55.8418 24.6152C56.291 25.11 56.6361 25.6895 56.877 26.3535C57.1178 27.0176 57.2383 27.7272 57.2383 28.4824ZM55.2363 28.4824C55.2363 28.0007 55.1647 27.5482 55.0215 27.125C54.8848 26.6953 54.6829 26.3242 54.416 26.0117C54.1556 25.6927 53.8366 25.4421 53.459 25.2598C53.0814 25.071 52.6517 24.9766 52.1699 24.9766H48.6934C48.2116 24.9766 47.7786 25.071 47.3945 25.2598C47.0169 25.4421 46.6947 25.6927 46.4277 26.0117C46.1673 26.3242 45.9655 26.6953 45.8223 27.125C45.6855 27.5482 45.6172 28.0007 45.6172 28.4824C45.6172 28.9642 45.6855 29.4199 45.8223 29.8496C45.9655 30.2728 46.1673 30.6439 46.4277 30.9629C46.6947 31.2819 47.0169 31.5358 47.3945 31.7246C47.7786 31.9069 48.2116 31.998 48.6934 31.998H52.1699C52.6517 31.998 53.0814 31.9069 53.459 31.7246C53.8366 31.5358 54.1556 31.2819 54.416 30.9629C54.6829 30.6439 54.8848 30.2728 55.0215 29.8496C55.1647 29.4199 55.2363 28.9642 55.2363 28.4824ZM71.3301 23.0039V28.502C71.3301 29.2637 71.1868 29.9798 70.9004 30.6504C70.6139 31.3145 70.2201 31.8971 69.7188 32.3984C69.224 32.8932 68.6445 33.2839 67.9805 33.5703C67.3164 33.8568 66.6068 34 65.8516 34H64.748C63.9928 34 63.2832 33.8568 62.6191 33.5703C61.9551 33.2773 61.3724 32.8835 60.8711 32.3887C60.3763 31.8874 59.9857 31.3047 59.6992 30.6406C59.4128 29.9701 59.2695 29.2572 59.2695 28.502V23.0039H61.2715V28.502C61.2715 28.9837 61.3626 29.4395 61.5449 29.8691C61.7272 30.2923 61.9746 30.6634 62.2871 30.9824C62.6061 31.2949 62.974 31.5423 63.3906 31.7246C63.8138 31.9069 64.2663 31.998 64.748 31.998H65.8516C66.3333 31.998 66.7858 31.9069 67.209 31.7246C67.6322 31.5423 68 31.2949 68.3125 30.9824C68.625 30.6634 68.8724 30.2923 69.0547 29.8691C69.237 29.4395 69.3281 28.9837 69.3281 28.502V23.0039H71.3301ZM86.9844 34H84.2598L81.1348 31.0215H77.082V29.0391H82.6191C82.8991 29.0391 83.1628 28.9837 83.4102 28.873C83.6576 28.7624 83.8724 28.6159 84.0547 28.4336C84.237 28.2448 84.3802 28.0267 84.4844 27.7793C84.5885 27.5319 84.6406 27.2715 84.6406 26.998C84.6406 26.7181 84.5885 26.4577 84.4844 26.2168C84.3802 25.9694 84.237 25.7546 84.0547 25.5723C83.8724 25.39 83.6576 25.2467 83.4102 25.1426C83.1628 25.0319 82.8991 24.9766 82.6191 24.9766H76.0371V34H74.0352V23.0039H82.6191C83.1725 23.0039 83.6934 23.1113 84.1816 23.3262C84.6699 23.5345 85.0931 23.821 85.4512 24.1855C85.8158 24.5436 86.1022 24.9668 86.3105 25.4551C86.5189 25.9368 86.623 26.4512 86.623 26.998C86.623 27.4473 86.5514 27.8802 86.4082 28.2969C86.265 28.707 86.0632 29.0846 85.8027 29.4297C85.5488 29.7682 85.2461 30.0612 84.8945 30.3086C84.543 30.556 84.1589 30.7383 83.7422 30.8555L86.9844 34ZM90.9785 34H88.9961V23.0039H90.9785V34ZM105.92 30.7578C105.92 31.207 105.835 31.6302 105.666 32.0273C105.497 32.418 105.266 32.7598 104.973 33.0527C104.686 33.3457 104.344 33.5768 103.947 33.7461C103.557 33.9154 103.137 34 102.688 34H93.3418V31.998H102.688C102.863 31.998 103.026 31.9688 103.176 31.9102C103.332 31.8451 103.465 31.7572 103.576 31.6465C103.693 31.5293 103.785 31.3958 103.85 31.2461C103.915 31.0964 103.947 30.9336 103.947 30.7578C103.947 30.582 103.915 30.4193 103.85 30.2695C103.785 30.1133 103.693 29.9798 103.576 29.8691C103.465 29.752 103.332 29.6608 103.176 29.5957C103.026 29.5306 102.863 29.498 102.688 29.498H96.5645C96.1217 29.498 95.7051 29.4134 95.3145 29.2441C94.9238 29.0749 94.582 28.8438 94.2891 28.5508C93.9961 28.2513 93.765 27.903 93.5957 27.5059C93.4264 27.1087 93.3418 26.6855 93.3418 26.2363C93.3418 25.8001 93.4264 25.3867 93.5957 24.9961C93.765 24.599 93.9961 24.2539 94.2891 23.9609C94.582 23.668 94.9238 23.4368 95.3145 23.2676C95.7051 23.0918 96.1217 23.0039 96.5645 23.0039H105.188V24.9766H96.5645C96.3952 24.9766 96.2324 25.0124 96.0762 25.084C95.9264 25.1491 95.7962 25.2402 95.6855 25.3574C95.5749 25.4681 95.487 25.6016 95.4219 25.7578C95.3568 25.9076 95.3242 26.0671 95.3242 26.2363C95.3242 26.4121 95.3568 26.5781 95.4219 26.7344C95.487 26.8841 95.5749 27.0176 95.6855 27.1348C95.7962 27.2454 95.9264 27.3333 96.0762 27.3984C96.2324 27.4635 96.3952 27.4961 96.5645 27.4961H102.688C103.137 27.4961 103.557 27.584 103.947 27.7598C104.344 27.929 104.686 28.1634 104.973 28.4629C105.266 28.7559 105.497 29.1009 105.666 29.498C105.835 29.8952 105.92 30.3151 105.92 30.7578ZM114.084 34H112.082V24.9766H106.789V23.0039H119.367V24.9766H114.084V34ZM123.576 21.5391C123.563 21.8711 123.511 22.1868 123.42 22.4863C123.335 22.7858 123.241 23.0495 123.137 23.2773C123.02 23.5443 122.886 23.7982 122.736 24.0391L121.447 24.0195C121.493 23.9349 121.538 23.8405 121.584 23.7363C121.623 23.6452 121.665 23.5378 121.711 23.4141C121.763 23.2904 121.809 23.1471 121.848 22.9844C121.672 22.9583 121.506 22.903 121.35 22.8184C121.193 22.7272 121.057 22.6165 120.939 22.4863C120.822 22.3496 120.731 22.1966 120.666 22.0273C120.601 21.8516 120.568 21.6693 120.568 21.4805C120.568 21.2786 120.607 21.0866 120.686 20.9043C120.764 20.722 120.871 20.5625 121.008 20.4258C121.145 20.2891 121.304 20.1816 121.486 20.1035C121.669 20.0189 121.864 19.9766 122.072 19.9766C122.274 19.9766 122.466 20.0189 122.648 20.1035C122.831 20.1816 122.99 20.2923 123.127 20.4355C123.264 20.5723 123.371 20.735 123.449 20.9238C123.534 21.1126 123.576 21.3177 123.576 21.5391ZM138.01 30.7578C138.01 31.207 137.925 31.6302 137.756 32.0273C137.587 32.418 137.355 32.7598 137.062 33.0527C136.776 33.3457 136.434 33.5768 136.037 33.7461C135.646 33.9154 135.227 34 134.777 34H125.432V31.998H134.777C134.953 31.998 135.116 31.9688 135.266 31.9102C135.422 31.8451 135.555 31.7572 135.666 31.6465C135.783 31.5293 135.874 31.3958 135.939 31.2461C136.005 31.0964 136.037 30.9336 136.037 30.7578C136.037 30.582 136.005 30.4193 135.939 30.2695C135.874 30.1133 135.783 29.9798 135.666 29.8691C135.555 29.752 135.422 29.6608 135.266 29.5957C135.116 29.5306 134.953 29.498 134.777 29.498H128.654C128.212 29.498 127.795 29.4134 127.404 29.2441C127.014 29.0749 126.672 28.8438 126.379 28.5508C126.086 28.2513 125.855 27.903 125.686 27.5059C125.516 27.1087 125.432 26.6855 125.432 26.2363C125.432 25.8001 125.516 25.3867 125.686 24.9961C125.855 24.599 126.086 24.2539 126.379 23.9609C126.672 23.668 127.014 23.4368 127.404 23.2676C127.795 23.0918 128.212 23.0039 128.654 23.0039H137.277V24.9766H128.654C128.485 24.9766 128.322 25.0124 128.166 25.084C128.016 25.1491 127.886 25.2402 127.775 25.3574C127.665 25.4681 127.577 25.6016 127.512 25.7578C127.447 25.9076 127.414 26.0671 127.414 26.2363C127.414 26.4121 127.447 26.5781 127.512 26.7344C127.577 26.8841 127.665 27.0176 127.775 27.1348C127.886 27.2454 128.016 27.3333 128.166 27.3984C128.322 27.4635 128.485 27.4961 128.654 27.4961H134.777C135.227 27.4961 135.646 27.584 136.037 27.7598C136.434 27.929 136.776 28.1634 137.062 28.4629C137.355 28.7559 137.587 29.1009 137.756 29.498C137.925 29.8952 138.01 30.3151 138.01 30.7578ZM70.0703 58H61.0566C60.0866 58 59.2044 57.8177 58.4102 57.4531C57.6159 57.0885 56.9355 56.5905 56.3691 55.959C55.8092 55.3275 55.3763 54.5853 55.0703 53.7324C54.7643 52.8796 54.6113 51.9681 54.6113 50.998C54.6113 50.0345 54.7643 49.1296 55.0703 48.2832C55.3763 47.4303 55.8092 46.6882 56.3691 46.0566C56.9355 45.4186 57.6159 44.9173 58.4102 44.5527C59.2044 44.1816 60.0866 43.9961 61.0566 43.9961H70.0703V45.998H61.0566C60.3665 45.998 59.7448 46.1315 59.1914 46.3984C58.6445 46.6589 58.179 47.0169 57.7949 47.4727C57.4173 47.9219 57.1243 48.4492 56.916 49.0547C56.7142 49.6602 56.6133 50.3079 56.6133 50.998C56.6133 51.6882 56.7142 52.3392 56.916 52.9512C57.1243 53.5566 57.4173 54.0872 57.7949 54.543C58.179 54.9922 58.6445 55.347 59.1914 55.6074C59.7448 55.8678 60.3665 55.998 61.0566 55.998H68.0684V52.0039H59.5918V50.002H70.0703V58ZM84.6504 47.0039V52.502C84.6504 53.2637 84.5072 53.9798 84.2207 54.6504C83.9342 55.3145 83.5404 55.8971 83.0391 56.3984C82.5443 56.8932 81.9648 57.2839 81.3008 57.5703C80.6367 57.8568 79.9271 58 79.1719 58H78.0684C77.3132 58 76.6035 57.8568 75.9395 57.5703C75.2754 57.2773 74.6927 56.8835 74.1914 56.3887C73.6966 55.8874 73.306 55.3047 73.0195 54.6406C72.7331 53.9701 72.5898 53.2572 72.5898 52.502V47.0039H74.5918V52.502C74.5918 52.9837 74.6829 53.4395 74.8652 53.8691C75.0475 54.2923 75.2949 54.6634 75.6074 54.9824C75.9264 55.2949 76.2943 55.5423 76.7109 55.7246C77.1341 55.9069 77.5866 55.998 78.0684 55.998H79.1719C79.6536 55.998 80.1061 55.9069 80.5293 55.7246C80.9525 55.5423 81.3203 55.2949 81.6328 54.9824C81.9453 54.6634 82.1927 54.2923 82.375 53.8691C82.5573 53.4395 82.6484 52.9837 82.6484 52.502V47.0039H84.6504ZM89.3379 58H87.3555V47.0039H89.3379V58ZM105.266 52.4629C105.266 53.2376 105.142 53.9635 104.895 54.6406C104.647 55.3112 104.299 55.8971 103.85 56.3984C103.4 56.8932 102.857 57.2839 102.219 57.5703C101.587 57.8568 100.887 58 100.119 58H95.207V55.9785H100.119C100.607 55.9785 101.044 55.8874 101.428 55.7051C101.812 55.5228 102.137 55.2754 102.404 54.9629C102.678 54.6439 102.886 54.2728 103.029 53.8496C103.173 53.4199 103.244 52.9577 103.244 52.4629C103.244 51.9746 103.173 51.5189 103.029 51.0957C102.886 50.6725 102.678 50.3047 102.404 49.9922C102.137 49.6797 101.812 49.4323 101.428 49.25C101.044 49.0677 100.607 48.9766 100.119 48.9766H94.2598V58H92.2188V46.9648H100.119C100.887 46.9648 101.587 47.1081 102.219 47.3945C102.857 47.681 103.4 48.0716 103.85 48.5664C104.299 49.0612 104.647 49.6439 104.895 50.3145C105.142 50.9785 105.266 51.6947 105.266 52.4629ZM118.977 58H107.492V46.9648H118.977V48.9766H109.514V55.9785H118.977V58ZM117.697 53.4395H110.461V51.418H117.697V53.4395Z" fill="#BFCDE3"/>
<defs>
<filter id="filter0_i_168_69" x="0.500977" y="0.500366" width="175.999" height="83.9986" filterUnits="userSpaceOnUse" color-interpolation-filters="sRGB">
<feFlood flood-opacity="0" result="BackgroundImageFix"/>
<feBlend mode="normal" in="SourceGraphic" in2="BackgroundImageFix" result="shape"/>
<feColorMatrix in="SourceAlpha" type="matrix" values="0 0 0 0 0 0 0 0 0 0 0 0 0 0 0 0 0 0 127 0" result="hardAlpha"/>
<feOffset dy="4"/>
<feGaussianBlur stdDeviation="2"/>
<feComposite in2="hardAlpha" operator="arithmetic" k2="-1" k3="1"/>
<feColorMatrix type="matrix" values="0 0 0 0 0 0 0 0 0 0 0 0 0 0 0 0 0 0 0.25 0"/>
<feBlend mode="normal" in2="shape" result="effect1_innerShadow_168_69"/>
</filter>
</defs>
</svg>
