<svg width="112" height="50" viewBox="0 0 112 50" fill="none" xmlns="http://www.w3.org/2000/svg">
<g filter="url(#filter0_i_185_218)">
<path d="M14.8454 23.4888C16.7995 18.5854 21.9903 14.829 26.0153 11.2453C26.8147 10.5336 26.8503 10.3035 25.8289 11.0538C21.9023 13.9381 18.0627 16.9269 14.1715 19.8502C13.5887 20.288 10.0204 23.6894 9.08123 23.4505C8.68714 23.3502 9.85104 21.6499 9.92721 21.5354C10.6002 20.5242 10.5853 19.4012 11.2464 18.4203C12.4473 16.6381 13.0419 14.6705 14.4726 13.0327C15.1486 12.2588 15.6761 12.4582 14.4439 12.4582C13.1997 12.4582 11.5349 12.7486 10.343 12.4454C9.91386 12.3362 10.9154 12.0199 10.9739 11.9986C13.0884 11.2262 16.0745 11.512 18.3154 11.207C21.9418 10.7135 25.58 10.1298 29.1268 9.29198C29.4388 9.21828 30.9049 8.64353 30.8474 9.34304C30.7596 10.4123 30.0333 11.5286 29.5283 12.4582C27.7036 15.8167 25.6515 19.0782 23.6207 22.3397C20.5363 27.2936 17.4028 32.2105 14.5013 37.2515C14.4388 37.3599 14.3044 37.6805 14.4152 37.6089C14.9188 37.2838 15.3204 36.849 15.7631 36.4599C18.5585 34.0029 21.3852 31.5756 24.2229 29.1572C30.6778 23.6563 37.047 18.002 43.7236 12.7135C44.4037 12.1748 47.3363 9.98375 45.5303 12.2539C41.1942 17.7044 35.5935 22.4069 30.8761 27.5997C28.8066 29.8777 26.7995 32.201 24.8252 34.5449C24.7179 34.6722 23.0495 36.7743 23.3626 36.5365C29.6924 31.7294 34.9317 25.5962 40.4544 20.0928C42.241 18.3123 43.9957 16.4634 45.9031 14.7817C46.2198 14.5026 47.2695 13.9435 47.1363 14.3221C46.5751 15.9161 45.1002 17.4904 44.0391 18.8161C42.1552 21.1697 40.0674 23.3757 38.0455 25.6336C36.9737 26.8305 35.8517 28.0378 34.891 29.3105C34.468 29.8708 36.1976 28.6153 36.7837 28.187C41.8153 24.5093 46.6633 20.6077 51.782 17.0287C52.4715 16.5466 53.2714 15.8847 54.0905 15.5605C54.857 15.2572 53.6238 17.0202 53.1585 17.6415C49.8726 22.0301 45.7771 26.0231 41.9313 30.0254C41.0956 30.8951 40.2726 31.7827 39.4077 32.6298C39.3921 32.6451 38.6707 33.2988 39.2213 32.8086C42.9999 29.4442 46.8096 26.0961 50.6349 22.7738C52.7031 20.9776 59.0138 15.7478 57.2451 17.782C55.9691 19.2494 54.3129 20.5102 52.8574 21.8291C50.512 23.9544 48.2208 26.1263 45.8744 28.2508C43.5082 30.3934 40.8023 32.2985 38.5043 34.481C38.0937 34.871 37.7832 35.1933 37.2425 35.4641C35.8737 36.1497 34.5388 36.8799 33.199 37.6089C32.422 38.0317 32.9885 37.8492 33.4428 37.6217C35.6201 36.5312 37.7494 35.373 39.7661 34.047C45.7518 30.1113 51.7023 26.1616 57.0443 21.5227C59.818 19.114 62.7803 16.8879 65.5185 14.4498C66.0778 13.9519 67.1988 12.4582 68.1138 12.4582C68.3074 12.4582 67.9119 12.7527 67.7984 12.8922C66.7214 14.2165 65.3334 15.3539 64.099 16.5563C58.2098 22.2929 52.8245 28.3998 47.7385 34.7108C46.1046 36.7382 44.3536 38.6828 42.978 40.8262C42.9135 40.9268 42.5385 41.5229 42.9063 41.1198C44.53 39.3406 46.7958 37.8703 48.8139 36.4727C53.5123 33.219 58.257 30.0348 63.3534 27.2933C66.2254 25.7483 68.9711 23.9326 71.5121 21.9823C73.6103 20.3718 79.7644 15.403 77.6204 16.9649C69.4638 22.9069 62.6383 30.3188 55.9546 37.5451C55.0949 38.4745 53.1155 40.0345 52.8001 41.2986C52.6674 41.83 53.4159 41.1529 53.5744 41.056C58.6666 37.9388 64.5508 35.8257 70.279 33.8299C70.7505 33.6657 74.724 32.6379 74.724 33.1405C74.724 34.0299 73.45 35.626 72.9173 36.3578C72.3673 37.1133 71.7375 37.968 71.4261 38.8345C71.294 39.202 73.0743 38.291 73.2901 38.1962C78.1195 36.0757 82.0502 33.468 85.5067 29.7445C88.335 26.6977 90.5484 23.1067 93.5651 20.2715C94.1258 19.7445 95.6683 19.0158 95.9884 18.4458C96.157 18.1454 95.2345 18.5129 94.8699 18.599C93.0592 19.0268 91.3303 19.8003 89.708 20.6162C84.175 23.3991 78.9538 27.0536 73.9497 30.5361C72.6588 31.4345 69.0646 34.254 69.8775 32.9873C70.1701 32.5314 70.9295 32.1289 71.3257 31.7617C72.8629 30.3371 74.2114 28.7542 75.6703 27.2677C79.6021 23.2618 85.5532 16.8244 92.2459 16.8244C93.2577 16.8244 91.0777 16.8275 90.726 16.9393C89.1916 17.4273 87.9037 18.1161 86.5104 18.9565C85.5077 19.5613 71.864 27.2914 71.6412 26.7954C71.4491 26.3678 72.5845 25.7686 72.7883 25.4421C73.3862 24.4837 75.6554 23.7612 76.588 23.0547C80.2749 20.2617 83.4229 17.0586 87.2847 14.4243C87.7282 14.1218 93.1736 9.91367 93.7658 10.441C93.7766 10.4506 93.5651 10.9623 93.5651 11.0793C93.5651 12.2779 92.1518 12.5303 91.8158 13.6072C91.5637 14.4151 89.9091 17.9946 90.5253 18.6118C90.5816 18.6682 97.0192 14.1521 97.6947 13.7093C98.7975 12.9865 100.084 12.3649 101.308 11.8198C101.705 11.6432 102.123 11.493 102.541 11.3602C102.698 11.3102 103 11.0328 103 11.1815C103 11.6409 101.298 12.9236 100.993 13.1986C99.6046 14.4503 98.2181 15.6766 96.9204 17.0032C95.5827 18.3707 93.5999 19.1519 92.332 20.6034C91.2118 21.8858 89.7976 23.5572 89.1775 25.0974C88.8686 25.8645 88.4275 28.0848 87.3134 28.0848C82.7304 28.0848 78.0938 24.2235 75.5556 21.1396C74.3879 19.7208 71.8435 15.9673 72.86 14.0668C73.4793 12.9088 74.1767 11.8217 74.9247 10.7219C75.2064 10.3079 75.3727 9.60614 75.8137 9.29198C76.2587 8.97505 77.7556 9.24091 78.3374 9.24091C80.4762 9.24091 82.5399 9.15219 84.4743 10.1091C85.6649 10.6979 85.3749 10.4357 85.0479 11.3091" stroke="#D9D9D9" stroke-width="17" stroke-linecap="round"/>
</g>
<g filter="url(#filter1_d_185_218)">
<path d="M28.1738 20H26.9727V12.7988H22.7246V11.5977H32.4219V12.7988H28.1738V20ZM40.543 16.6895C40.543 17.1465 40.4707 17.5762 40.3262 17.9785C40.1816 18.377 39.9746 18.7266 39.7051 19.0273C39.4395 19.3281 39.1191 19.5664 38.7441 19.7422C38.373 19.9141 37.959 20 37.502 20H35.416C34.959 20 34.543 19.9141 34.168 19.7422C33.793 19.5664 33.4707 19.3281 33.2012 19.0273C32.9355 18.7266 32.7305 18.377 32.5859 17.9785C32.4414 17.5762 32.3691 17.1465 32.3691 16.6895C32.3691 16.2363 32.4414 15.8105 32.5859 15.4121C32.7305 15.0137 32.9355 14.666 33.2012 14.3691C33.4707 14.0684 33.793 13.832 34.168 13.6602C34.543 13.4883 34.959 13.4023 35.416 13.4023H37.502C37.959 13.4023 38.373 13.4883 38.7441 13.6602C39.1191 13.832 39.4395 14.0684 39.7051 14.3691C39.9746 14.666 40.1816 15.0137 40.3262 15.4121C40.4707 15.8105 40.543 16.2363 40.543 16.6895ZM39.3418 16.6895C39.3418 16.4004 39.2988 16.1289 39.2129 15.875C39.1309 15.6172 39.0098 15.3945 38.8496 15.207C38.6934 15.0156 38.502 14.8652 38.2754 14.7559C38.0488 14.6426 37.791 14.5859 37.502 14.5859H35.416C35.127 14.5859 34.8672 14.6426 34.6367 14.7559C34.4102 14.8652 34.2168 15.0156 34.0566 15.207C33.9004 15.3945 33.7793 15.6172 33.6934 15.875C33.6113 16.1289 33.5703 16.4004 33.5703 16.6895C33.5703 16.9785 33.6113 17.252 33.6934 17.5098C33.7793 17.7637 33.9004 17.9863 34.0566 18.1777C34.2168 18.3691 34.4102 18.5215 34.6367 18.6348C34.8672 18.7441 35.127 18.7988 35.416 18.7988H37.502C37.791 18.7988 38.0488 18.7441 38.2754 18.6348C38.502 18.5215 38.6934 18.3691 38.8496 18.1777C39.0098 17.9863 39.1309 17.7637 39.2129 17.5098C39.2988 17.252 39.3418 16.9785 39.3418 16.6895ZM48.998 13.4023V16.7012C48.998 17.1582 48.9121 17.5879 48.7402 17.9902C48.5684 18.3887 48.332 18.7383 48.0312 19.0391C47.7344 19.3359 47.3867 19.5703 46.9883 19.7422C46.5898 19.9141 46.1641 20 45.7109 20H45.0488C44.5957 20 44.1699 19.9141 43.7715 19.7422C43.373 19.5664 43.0234 19.3301 42.7227 19.0332C42.4258 18.7324 42.1914 18.3828 42.0195 17.9844C41.8477 17.582 41.7617 17.1543 41.7617 16.7012V13.4023H42.9629V16.7012C42.9629 16.9902 43.0176 17.2637 43.127 17.5215C43.2363 17.7754 43.3848 17.998 43.5723 18.1895C43.7637 18.377 43.9844 18.5254 44.2344 18.6348C44.4883 18.7441 44.7598 18.7988 45.0488 18.7988H45.7109C46 18.7988 46.2715 18.7441 46.5254 18.6348C46.7793 18.5254 47 18.377 47.1875 18.1895C47.375 17.998 47.5234 17.7754 47.6328 17.5215C47.7422 17.2637 47.7969 16.9902 47.7969 16.7012V13.4023H48.998ZM58.3906 20H56.7559L54.8809 18.2129H52.4492V17.0234H55.7715C55.9395 17.0234 56.0977 16.9902 56.2461 16.9238C56.3945 16.8574 56.5234 16.7695 56.6328 16.6602C56.7422 16.5469 56.8281 16.416 56.8906 16.2676C56.9531 16.1191 56.9844 15.9629 56.9844 15.7988C56.9844 15.6309 56.9531 15.4746 56.8906 15.3301C56.8281 15.1816 56.7422 15.0527 56.6328 14.9434C56.5234 14.834 56.3945 14.748 56.2461 14.6855C56.0977 14.6191 55.9395 14.5859 55.7715 14.5859H51.8223V20H50.6211V13.4023H55.7715C56.1035 13.4023 56.416 13.4668 56.709 13.5957C57.002 13.7207 57.2559 13.8926 57.4707 14.1113C57.6895 14.3262 57.8613 14.5801 57.9863 14.873C58.1113 15.1621 58.1738 15.4707 58.1738 15.7988C58.1738 16.0684 58.1309 16.3281 58.0449 16.5781C57.959 16.8242 57.8379 17.0508 57.6816 17.2578C57.5293 17.4609 57.3477 17.6367 57.1367 17.7852C56.9258 17.9336 56.6953 18.043 56.4453 18.1133L58.3906 20ZM60.7871 20H59.5977V13.4023H60.7871V20ZM69.752 18.0547C69.752 18.3242 69.7012 18.5781 69.5996 18.8164C69.498 19.0508 69.3594 19.2559 69.1836 19.4316C69.0117 19.6074 68.8066 19.7461 68.5684 19.8477C68.334 19.9492 68.082 20 67.8125 20H62.2051V18.7988H67.8125C67.918 18.7988 68.0156 18.7812 68.1055 18.7461C68.1992 18.707 68.2793 18.6543 68.3457 18.5879C68.416 18.5176 68.4707 18.4375 68.5098 18.3477C68.5488 18.2578 68.5684 18.1602 68.5684 18.0547C68.5684 17.9492 68.5488 17.8516 68.5098 17.7617C68.4707 17.668 68.416 17.5879 68.3457 17.5215C68.2793 17.4512 68.1992 17.3965 68.1055 17.3574C68.0156 17.3184 67.918 17.2988 67.8125 17.2988H64.1387C63.873 17.2988 63.623 17.248 63.3887 17.1465C63.1543 17.0449 62.9492 16.9062 62.7734 16.7305C62.5977 16.5508 62.459 16.3418 62.3574 16.1035C62.2559 15.8652 62.2051 15.6113 62.2051 15.3418C62.2051 15.0801 62.2559 14.832 62.3574 14.5977C62.459 14.3594 62.5977 14.1523 62.7734 13.9766C62.9492 13.8008 63.1543 13.6621 63.3887 13.5605C63.623 13.4551 63.873 13.4023 64.1387 13.4023H69.3125V14.5859H64.1387C64.0371 14.5859 63.9395 14.6074 63.8457 14.6504C63.7559 14.6895 63.6777 14.7441 63.6113 14.8145C63.5449 14.8809 63.4922 14.9609 63.4531 15.0547C63.4141 15.1445 63.3945 15.2402 63.3945 15.3418C63.3945 15.4473 63.4141 15.5469 63.4531 15.6406C63.4922 15.7305 63.5449 15.8105 63.6113 15.8809C63.6777 15.9473 63.7559 16 63.8457 16.0391C63.9395 16.0781 64.0371 16.0977 64.1387 16.0977H67.8125C68.082 16.0977 68.334 16.1504 68.5684 16.2559C68.8066 16.3574 69.0117 16.498 69.1836 16.6777C69.3594 16.8535 69.498 17.0605 69.5996 17.2988C69.7012 17.5371 69.752 17.7891 69.752 18.0547ZM74.6504 20H73.4492V14.5859H70.2734V13.4023H77.8203V14.5859H74.6504V20ZM80.3457 12.5234C80.3379 12.7227 80.3066 12.9121 80.252 13.0918C80.2012 13.2715 80.1445 13.4297 80.082 13.5664C80.0117 13.7266 79.9316 13.8789 79.8418 14.0234L79.0684 14.0117C79.0957 13.9609 79.123 13.9043 79.1504 13.8418C79.1738 13.7871 79.1992 13.7227 79.2266 13.6484C79.2578 13.5742 79.2852 13.4883 79.3086 13.3906C79.2031 13.375 79.1035 13.3418 79.0098 13.291C78.916 13.2363 78.834 13.1699 78.7637 13.0918C78.6934 13.0098 78.6387 12.918 78.5996 12.8164C78.5605 12.7109 78.541 12.6016 78.541 12.4883C78.541 12.3672 78.5645 12.252 78.6113 12.1426C78.6582 12.0332 78.7227 11.9375 78.8047 11.8555C78.8867 11.7734 78.9824 11.709 79.0918 11.6621C79.2012 11.6113 79.3184 11.5859 79.4434 11.5859C79.5645 11.5859 79.6797 11.6113 79.7891 11.6621C79.8984 11.709 79.9941 11.7754 80.0762 11.8613C80.1582 11.9434 80.2227 12.041 80.2695 12.1543C80.3203 12.2676 80.3457 12.3906 80.3457 12.5234ZM89.0059 18.0547C89.0059 18.3242 88.9551 18.5781 88.8535 18.8164C88.752 19.0508 88.6133 19.2559 88.4375 19.4316C88.2656 19.6074 88.0605 19.7461 87.8223 19.8477C87.5879 19.9492 87.3359 20 87.0664 20H81.459V18.7988H87.0664C87.1719 18.7988 87.2695 18.7812 87.3594 18.7461C87.4531 18.707 87.5332 18.6543 87.5996 18.5879C87.6699 18.5176 87.7246 18.4375 87.7637 18.3477C87.8027 18.2578 87.8223 18.1602 87.8223 18.0547C87.8223 17.9492 87.8027 17.8516 87.7637 17.7617C87.7246 17.668 87.6699 17.5879 87.5996 17.5215C87.5332 17.4512 87.4531 17.3965 87.3594 17.3574C87.2695 17.3184 87.1719 17.2988 87.0664 17.2988H83.3926C83.127 17.2988 82.877 17.248 82.6426 17.1465C82.4082 17.0449 82.2031 16.9062 82.0273 16.7305C81.8516 16.5508 81.7129 16.3418 81.6113 16.1035C81.5098 15.8652 81.459 15.6113 81.459 15.3418C81.459 15.0801 81.5098 14.832 81.6113 14.5977C81.7129 14.3594 81.8516 14.1523 82.0273 13.9766C82.2031 13.8008 82.4082 13.6621 82.6426 13.5605C82.877 13.4551 83.127 13.4023 83.3926 13.4023H88.5664V14.5859H83.3926C83.291 14.5859 83.1934 14.6074 83.0996 14.6504C83.0098 14.6895 82.9316 14.7441 82.8652 14.8145C82.7988 14.8809 82.7461 14.9609 82.707 15.0547C82.668 15.1445 82.6484 15.2402 82.6484 15.3418C82.6484 15.4473 82.668 15.5469 82.707 15.6406C82.7461 15.7305 82.7988 15.8105 82.8652 15.8809C82.9316 15.9473 83.0098 16 83.0996 16.0391C83.1934 16.0781 83.291 16.0977 83.3926 16.0977H87.0664C87.3359 16.0977 87.5879 16.1504 87.8223 16.2559C88.0605 16.3574 88.2656 16.498 88.4375 16.6777C88.6133 16.8535 88.752 17.0605 88.8535 17.2988C88.9551 17.5371 89.0059 17.7891 89.0059 18.0547ZM45.9922 34H40.584C40.002 34 39.4727 33.8906 38.9961 33.6719C38.5195 33.4531 38.1113 33.1543 37.7715 32.7754C37.4355 32.3965 37.1758 31.9512 36.9922 31.4395C36.8086 30.9277 36.7168 30.3809 36.7168 29.7988C36.7168 29.2207 36.8086 28.6777 36.9922 28.1699C37.1758 27.6582 37.4355 27.2129 37.7715 26.834C38.1113 26.4512 38.5195 26.1504 38.9961 25.9316C39.4727 25.709 40.002 25.5977 40.584 25.5977H45.9922V26.7988H40.584C40.1699 26.7988 39.7969 26.8789 39.4648 27.0391C39.1367 27.1953 38.8574 27.4102 38.627 27.6836C38.4004 27.9531 38.2246 28.2695 38.0996 28.6328C37.9785 28.9961 37.918 29.3848 37.918 29.7988C37.918 30.2129 37.9785 30.6035 38.0996 30.9707C38.2246 31.334 38.4004 31.6523 38.627 31.9258C38.8574 32.1953 39.1367 32.4082 39.4648 32.5645C39.7969 32.7207 40.1699 32.7988 40.584 32.7988H44.791V30.4023H39.7051V29.2012H45.9922V34ZM54.7402 27.4023V30.7012C54.7402 31.1582 54.6543 31.5879 54.4824 31.9902C54.3105 32.3887 54.0742 32.7383 53.7734 33.0391C53.4766 33.3359 53.1289 33.5703 52.7305 33.7422C52.332 33.9141 51.9062 34 51.4531 34H50.791C50.3379 34 49.9121 33.9141 49.5137 33.7422C49.1152 33.5664 48.7656 33.3301 48.4648 33.0332C48.168 32.7324 47.9336 32.3828 47.7617 31.9844C47.5898 31.582 47.5039 31.1543 47.5039 30.7012V27.4023H48.7051V30.7012C48.7051 30.9902 48.7598 31.2637 48.8691 31.5215C48.9785 31.7754 49.127 31.998 49.3145 32.1895C49.5059 32.377 49.7266 32.5254 49.9766 32.6348C50.2305 32.7441 50.502 32.7988 50.791 32.7988H51.4531C51.7422 32.7988 52.0137 32.7441 52.2676 32.6348C52.5215 32.5254 52.7422 32.377 52.9297 32.1895C53.1172 31.998 53.2656 31.7754 53.375 31.5215C53.4844 31.2637 53.5391 30.9902 53.5391 30.7012V27.4023H54.7402ZM57.5527 34H56.3633V27.4023H57.5527V34ZM67.1094 30.6777C67.1094 31.1426 67.0352 31.5781 66.8867 31.9844C66.7383 32.3867 66.5293 32.7383 66.2598 33.0391C65.9902 33.3359 65.6641 33.5703 65.2812 33.7422C64.9023 33.9141 64.4824 34 64.0215 34H61.0742V32.7871H64.0215C64.3145 32.7871 64.5762 32.7324 64.8066 32.623C65.0371 32.5137 65.2324 32.3652 65.3926 32.1777C65.5566 31.9863 65.6816 31.7637 65.7676 31.5098C65.8535 31.252 65.8965 30.9746 65.8965 30.6777C65.8965 30.3848 65.8535 30.1113 65.7676 29.8574C65.6816 29.6035 65.5566 29.3828 65.3926 29.1953C65.2324 29.0078 65.0371 28.8594 64.8066 28.75C64.5762 28.6406 64.3145 28.5859 64.0215 28.5859H60.5059V34H59.2812V27.3789H64.0215C64.4824 27.3789 64.9023 27.4648 65.2812 27.6367C65.6641 27.8086 65.9902 28.043 66.2598 28.3398C66.5293 28.6367 66.7383 28.9863 66.8867 29.3887C67.0352 29.7871 67.1094 30.2168 67.1094 30.6777ZM75.3359 34H68.4453V27.3789H75.3359V28.5859H69.6582V32.7871H75.3359V34ZM74.5684 31.2637H70.2266V30.0508H74.5684V31.2637Z" fill="black"/>
</g>
<defs>
<filter id="filter0_i_185_218" x="0.50061" y="0.500244" width="110.999" height="53.4991" filterUnits="userSpaceOnUse" color-interpolation-filters="sRGB">
<feFlood flood-opacity="0" result="BackgroundImageFix"/>
<feBlend mode="normal" in="SourceGraphic" in2="BackgroundImageFix" result="shape"/>
<feColorMatrix in="SourceAlpha" type="matrix" values="0 0 0 0 0 0 0 0 0 0 0 0 0 0 0 0 0 0 127 0" result="hardAlpha"/>
<feOffset dy="4"/>
<feGaussianBlur stdDeviation="2"/>
<feComposite in2="hardAlpha" operator="arithmetic" k2="-1" k3="1"/>
<feColorMatrix type="matrix" values="0 0 0 0 0 0 0 0 0 0 0 0 0 0 0 0 0 0 0.25 0"/>
<feBlend mode="normal" in2="shape" result="effect1_innerShadow_185_218"/>
</filter>
<filter id="filter1_d_185_218" x="16.2246" y="11.0859" width="72.7812" height="27.4141" filterUnits="userSpaceOnUse" color-interpolation-filters="sRGB">
<feFlood flood-opacity="0" result="BackgroundImageFix"/>
<feColorMatrix in="SourceAlpha" type="matrix" values="0 0 0 0 0 0 0 0 0 0 0 0 0 0 0 0 0 0 127 0" result="hardAlpha"/>
<feOffset dx="-4" dy="2"/>
<feGaussianBlur stdDeviation="1.25"/>
<feComposite in2="hardAlpha" operator="out"/>
<feColorMatrix type="matrix" values="0 0 0 0 0.588264 0 0 0 0 0.820833 0 0 0 0 0.723154 0 0 0 0.25 0"/>
<feBlend mode="normal" in2="BackgroundImageFix" result="effect1_dropShadow_185_218"/>
<feBlend mode="normal" in="SourceGraphic" in2="effect1_dropShadow_185_218" result="shape"/>
</filter>
</defs>
</svg>
