<svg width="73" height="15" viewBox="0 0 73 15" fill="none" xmlns="http://www.w3.org/2000/svg">
<path d="M4.13187 13.5453L8 11.2331L11.8681 13.5742L10.862 9.20038L14.2711 6.29095L9.77779 5.89595L8 1.79191L6.22221 5.86705L1.72894 6.26205L5.13796 9.20038L4.13187 13.5453ZM3.04762 15L4.3663 9.45087L0 5.72254L5.74359 5.23121L8 0L10.2564 5.23121L16 5.72254L11.6337 9.45087L12.9524 15L8 12.052L3.04762 15Z" fill="#FFD600"/>
<path d="M4.13187 13.5453L8 11.2331L11.8681 13.5742L10.862 9.20038L14.2711 6.29095L9.77779 5.89595L8 1.79191L6.22221 5.86705L1.72894 6.26205L5.13796 9.20038L4.13187 13.5453Z" fill="#FFD600"/>
<path d="M61.1319 13.5453L65 11.2331L68.8681 13.5742L67.862 9.20038L71.2711 6.29095L66.7778 5.89595L65 1.79191L63.2222 5.86705L58.7289 6.26205L62.138 9.20038L61.1319 13.5453ZM60.0476 15L61.3663 9.45087L57 5.72254L62.7436 5.23121L65 0L67.2564 5.23121L73 5.72254L68.6337 9.45087L69.9524 15L65 12.052L60.0476 15Z" fill="#FFD600"/>
<path d="M61.1319 13.5453L65 11.2331L68.8681 13.5742L67.862 9.20038L71.2711 6.29095L66.7778 5.89595L65 1.79191L63.2222 5.86705L58.7289 6.26205L62.138 9.20038L61.1319 13.5453Z" fill="#FFD600"/>
<path d="M42.1319 13.5453L46 11.2331L49.8681 13.5742L48.862 9.20038L52.2711 6.29095L47.7778 5.89595L46 1.79191L44.2222 5.86705L39.7289 6.26205L43.138 9.20038L42.1319 13.5453ZM41.0476 15L42.3663 9.45087L38 5.72254L43.7436 5.23121L46 0L48.2564 5.23121L54 5.72254L49.6337 9.45087L50.9524 15L46 12.052L41.0476 15Z" fill="#FFD600"/>
<path d="M42.1319 13.5453L46 11.2331L49.8681 13.5742L48.862 9.20038L52.2711 6.29095L47.7778 5.89595L46 1.79191L44.2222 5.86705L39.7289 6.26205L43.138 9.20038L42.1319 13.5453Z" fill="#FFD600"/>
<path d="M23.1319 13.5453L27 11.2331L30.8681 13.5742L29.862 9.20038L33.2711 6.29095L28.7778 5.89595L27 1.79191L25.2222 5.86705L20.7289 6.26205L24.138 9.20038L23.1319 13.5453ZM22.0476 15L23.3663 9.45087L19 5.72254L24.7436 5.23121L27 0L29.2564 5.23121L35 5.72254L30.6337 9.45087L31.9524 15L27 12.052L22.0476 15Z" fill="#FFD600"/>
<path d="M23.1319 13.5453L27 11.2331L30.8681 13.5742L29.862 9.20038L33.2711 6.29095L28.7778 5.89595L27 1.79191L25.2222 5.86705L20.7289 6.26205L24.138 9.20038L23.1319 13.5453Z" fill="#FFD600"/>
</svg>
