<svg width="16" height="15" viewBox="0 0 16 15" fill="none" xmlns="http://www.w3.org/2000/svg">
<path d="M4.13187 13.5453L8 11.2331L11.8681 13.5742L10.862 9.20038L14.2711 6.29095L9.77779 5.89595L8 1.79191L6.22221 5.86705L1.72894 6.26205L5.13796 9.20038L4.13187 13.5453ZM3.04762 15L4.3663 9.45087L0 5.72254L5.74359 5.23121L8 0L10.2564 5.23121L16 5.72254L11.6337 9.45087L12.9524 15L8 12.052L3.04762 15Z" fill="#FFD600"/>
<path d="M4.13187 13.5453L8 11.2331L11.8681 13.5742L10.862 9.20038L14.2711 6.29095L9.77779 5.89595L8 1.79191L6.22221 5.86705L1.72894 6.26205L5.13796 9.20038L4.13187 13.5453Z" fill="#FFD600"/>
</svg>
