<svg width="305" height="52" viewBox="0 0 305 52" fill="none" xmlns="http://www.w3.org/2000/svg">
<g filter="url(#filter0_i_1453_5)">
<path d="M240.641 48.6831C120.285 55.2398 175.997 47.0296 4.27223 34.7141C4.27223 34.7141 -13.7192 12.4777 34.6714 7.0611C83.062 1.64454 168.056 7.06113 228.854 1.64454C289.652 -3.77206 272.902 26.7318 272.902 26.7318C272.902 26.7318 360.997 42.1263 240.641 48.6831Z" fill="#235787"/>
</g>
<path d="M240.641 48.6831C120.285 55.2398 175.997 47.0296 4.27223 34.7141C4.27223 34.7141 -13.7192 12.4777 34.6714 7.0611C83.062 1.64454 168.056 7.06113 228.854 1.64454C289.652 -3.77206 272.902 26.7318 272.902 26.7318C272.902 26.7318 360.997 42.1263 240.641 48.6831Z" stroke="#235787"/>
<defs>
<filter id="filter0_i_1453_5" x="0.5" y="0.499989" width="304" height="55" filterUnits="userSpaceOnUse" color-interpolation-filters="sRGB">
<feFlood flood-opacity="0" result="BackgroundImageFix"/>
<feBlend mode="normal" in="SourceGraphic" in2="BackgroundImageFix" result="shape"/>
<feColorMatrix in="SourceAlpha" type="matrix" values="0 0 0 0 0 0 0 0 0 0 0 0 0 0 0 0 0 0 127 0" result="hardAlpha"/>
<feOffset dy="4"/>
<feGaussianBlur stdDeviation="2"/>
<feComposite in2="hardAlpha" operator="arithmetic" k2="-1" k3="1"/>
<feColorMatrix type="matrix" values="0 0 0 0 0 0 0 0 0 0 0 0 0 0 0 0 0 0 0.25 0"/>
<feBlend mode="normal" in2="shape" result="effect1_innerShadow_1453_5"/>
</filter>
</defs>
</svg>
