<svg width="328" height="209" viewBox="0 0 328 209" fill="none" xmlns="http://www.w3.org/2000/svg">
<path d="M131.617 202.186L132.805 200.446L138.067 196.791L139.765 198.183L143.499 194.703L148.592 189.308L149.95 186.698L152.156 178.171L153.854 170.514L155.891 166.164L156.57 162.161L159.286 157.637L160.983 152.764L162.68 148.24L163.529 145.456V139.713L165.396 134.492L163.529 133.448L155.891 131.882L146.724 130.142L145.876 131.882L144.857 134.492L142.82 136.581L128.901 150.154L127.543 151.546H123.979L119.735 153.287L116.34 153.983L113.624 156.941L110.908 160.421L109.89 162.161V163.032L115.152 166.164L116.34 168.774L116.849 171.558L117.868 174.343L118.547 177.649L119.056 179.737L117.868 184.088V185.828L119.056 189.308L121.263 194.703L121.772 196.791V200.446L122.79 203.23L127.543 206.014L131.617 202.186Z" fill="#848B7A" stroke="black"/>
<path d="M81.6653 134.106L75.1506 150.939L67.2643 143.925L64.6927 134.983L63.8354 132.703V130.599L65.0355 125.339L64.3498 115.694L69.8359 110.259L72.0646 109.207H77.0364L81.3224 110.259L82.1796 110.96V113.766L83.2083 114.467L85.2656 113.24L88.0086 115.694L94.6948 114.642L99.3237 115.694L95.4683 118.357L95.1306 118.591L81.6653 134.106Z" fill="#848B7A"/>
<path d="M99.6666 116.045L95.2091 118.5L95.1306 118.591M75.1506 150.939L81.6653 134.106L95.1306 118.591M75.1506 150.939L67.2643 143.925L64.6927 134.983L63.8354 132.703V130.599L65.0355 125.339L64.3498 115.694L69.8359 110.259L72.0646 109.207H77.0364L81.3224 110.259L82.1796 110.96V113.766L83.2083 114.467L85.2656 113.24L88.0086 115.694L94.6948 114.642L99.3237 115.694L95.1306 118.591M75.1506 150.939L81.4939 134.106" stroke="black"/>
<path d="M177.109 35.3017L176.6 29.3851L177.788 22.5984L179.316 11.6352L183.389 4.15236L195.102 1.36806L224.807 11.1131L237.199 18.5959L245.177 41.0444L246.025 45.3948L241.442 46.4389L233.974 48.3531L223.11 47.135L211.907 38.7821L195.951 33.0395H181.862L177.109 35.3017Z" fill="#848B7A" stroke="black"/>
<path d="M169.64 51.4855L176.6 38.2601L177.109 35.3017L181.692 33.0395H195.951L211.737 39.1301L222.601 46.787L233.634 48.5272L246.025 45.3948L249.251 52.7036L244.158 62.1006H227.353L214.792 59.1423L207.493 62.1006L205.456 61.4046L200.873 57.5761L198.327 59.3163L196.969 59.1423V56.01H194.593H193.914L189.84 60.8825L189.5 61.0565L169.64 51.4855Z" fill="#848B7A" stroke="black"/>
<path d="M146.215 129.794L153.684 110.652L167.094 105.083L168.112 105.431L170.659 114.132L169.98 116.743L168.961 117.961V125.443L166.075 129.794L165.057 131.708L164.887 134.492L163.02 133.448L146.215 129.794Z" fill="#848B7A" stroke="black"/>
<path d="M180.164 71.4976L185.087 66.9731L189.67 61.4045L196.46 65.0589L197.139 66.2771L197.648 69.4094L197.988 72.0197V73.4118L203.759 79.5025L204.268 80.7206L204.947 83.853L204.608 86.2892L203.759 88.2034L200.024 92.5539L196.12 95.8603L190.519 99.5147L189.161 99.8627H182.031L181.013 99.5147H179.316H177.618L176.769 100.037L175.411 100.211L173.374 99.8627L170.998 99.5147H170.149L171.507 95.8603L175.242 85.4191L180.164 71.4976Z" fill="#848B7A" stroke="black"/>
<path d="M207.324 62.1006L214.453 59.1423L227.014 62.1006H243.649L242.8 67.8432L241.952 72.7158L242.291 74.63L243.649 81.4167V82.6348L241.782 84.7231L239.745 86.8113L237.708 86.4633L227.014 82.4608L219.375 78.9804L218.866 78.1104L219.885 72.3677L219.375 66.7991L213.265 65.0589L207.154 62.1006H207.324Z" fill="#848B7A" stroke="black"/>
<path d="M280.484 78.9804L278.107 76.1961L287.443 75.5001L292.705 73.4118L296.1 71.8457L297.968 66.9731L302.72 62.7967L308.492 58.7942L312.396 46.961L313.245 45.5688H314.263L321.223 49.5713L323.09 50.7894L323.429 52.1815L324.278 59.4903L326.315 75.6741L326.654 78.1103V102.647L325.296 105.779L324.448 107.52H324.108L321.732 106.475L316.979 107.694L315.791 105.953L310.698 97.6004L302.72 94.2941L301.362 84.375L291.347 90.1176L287.783 86.4632L285.746 88.3774L282.011 86.8113L281.502 80.3726L280.484 78.9804Z" fill="#B8B8B8" stroke="black"/>
<path d="M113.6 101.806L104 112.338L104.218 113.234L108.145 119.508L111.418 122.421L112.073 123.542L108.364 134.746L114.473 137.211L113.164 141.244L123.855 144.381L128.655 141.916L133.236 145.502L137.164 150.431L137.818 152L142.618 147.294L148.073 133.401L153.309 120.405L154.618 116.819L162.909 112.114L170.545 109.201L172.727 108.528L175.564 102.926L188.218 67.0736L194.764 61.0234L200 54.0769L174.691 41.5284L183.636 24.9465L184.291 21.1371L183.855 19.5686L179.273 18L177.964 18.4482L175.127 21.1371L172.509 24.9465L156.364 54.0769L145.891 65.505L134.109 70.4348L130.4 76.9331L126.036 83.8796L120.8 91.9465L119.927 93.291L119.055 94.6355L117.309 96.8763L113.6 101.806Z" fill="#848B7A" stroke="black"/>
<path d="M0.743476 164.424L1.5922 164.076L2.95016 156.419L18.397 154.679L20.7734 154.853L27.9027 157.637L33.1648 170.166L32.6556 174.517L30.7884 175.213L25.0171 179.389L21.9616 180.085L10.0795 191.745L8.72151 195.399L6.68456 201.838L3.4594 207.928L2.61067 208.102L0.57373 207.754V164.424H0.743476Z" fill="#B8B8B8" stroke="black"/>
<path d="M32.6556 53.2257L42.5009 48.5272H46.0655L62.7006 50.2673L66.0955 53.7477L68.9811 60.0124L67.7929 61.2305L72.2063 67.8433L73.9037 69.2354L72.0365 72.1937L67.7929 70.9756H67.2837L63.8888 75.3261L64.398 79.8505L65.756 82.8089L65.9257 86.2892L67.2837 87.5074L71.0181 88.8995L72.2063 92.3799L73.2248 93.25L77.2987 92.0319L80.0146 92.5539L83.749 91.8578L87.3136 92.7279L89.1808 93.9461L87.3136 94.0258L81.5423 94.1201L79.5053 94.4681L78.6566 94.6422V95.8603V96.2083L79.5053 96.5564L80.5238 96.9044L79.6751 98.2965L78.9961 98.8186L78.8264 99.8627L79.6751 101.255H82.5608L83.2397 100.733L84.2582 100.559L85.4464 100.907L85.9557 101.603L87.3136 101.081L87.8229 100.907L88.1623 101.255L88.8413 102.473V103.343L88.6716 103.691L88.1623 104.213L87.4834 104.561L86.1254 104.387L79.6751 103.169L73.9037 102.995L71.6971 102.821L65.4165 91.5098L63.8888 88.2035L63.04 84.7231L60.8334 78.8064L56.9292 72.8898L55.9107 72.0197L56.7595 70.8016L50.4789 64.7109L48.7814 63.3188L41.8219 60.3604L34.0136 61.9266L33.5044 61.5786L32.6556 53.2257Z" fill="#B8B8B8" stroke="black"/>
<path d="M48 163.822L60 133.554L84 106.439L103.385 94.1433L112.923 87.8376L119.692 85L125.846 94.1433L131.692 99.5032L130.462 102.656L125.846 115.898L135.077 119.051L132.923 125.357L147.077 129.14L155.385 125.357L163.077 132.608L166.462 136.076L168 138.599V140.49V142.067L145.538 163.822L144.308 165.083H137.846L130.462 168.236L124.308 169.497L117.846 175.803L111.692 184H109.538H103.385L90.1538 181.162L78.7692 175.803L60 168.236L48 163.822Z" fill="#7DFF8A" stroke="black"/>
<rect x="53.5" y="10.5" width="100" height="122" rx="6.5" fill="#AFD9FF" fill-opacity="0.62" stroke="#003B72"/>
<path d="M137.5 10.5H147C150.59 10.5 153.5 13.4101 153.5 17V26.5H140C138.619 26.5 137.5 25.3807 137.5 24V10.5Z" stroke="#003B72"/>
<path d="M141.992 23.9167L141 22.925L144.967 18.9583L141 14.9917L141.992 14L145.958 17.9667L149.925 14L150.917 14.9917L146.95 18.9583L150.917 22.925L149.925 23.9167L145.958 19.95L141.992 23.9167Z" fill="black"/>
<path d="M78.4908 28L75.5318 24.161L76.1918 23.765L79.4258 28H78.4908ZM73.2218 28V20.3H74.0138V28H73.2218ZM73.7718 24.469V23.754H76.1808V24.469H73.7718ZM76.2578 24.238L75.5098 24.106L78.3808 20.3H79.2608L76.2578 24.238ZM80.651 28V22.225H81.432V26.812L85.293 22.225H85.986V28H85.205V23.402L81.355 28H80.651ZM91.2053 28.055C90.7066 28.055 90.2556 27.9413 89.8523 27.714C89.4489 27.4793 89.1263 27.1457 88.8843 26.713C88.6496 26.273 88.5323 25.7377 88.5323 25.107C88.5323 24.4763 88.6496 23.9447 88.8843 23.512C89.1189 23.072 89.4379 22.7383 89.8413 22.511C90.2446 22.2837 90.6993 22.17 91.2053 22.17C91.7553 22.17 92.2466 22.2947 92.6793 22.544C93.1193 22.786 93.4639 23.1307 93.7133 23.578C93.9626 24.018 94.0873 24.5277 94.0873 25.107C94.0873 25.6937 93.9626 26.207 93.7133 26.647C93.4639 27.087 93.1193 27.4317 92.6793 27.681C92.2466 27.9303 91.7553 28.055 91.2053 28.055ZM88.2243 30.134V22.225H88.9723V23.963L88.8953 25.118L89.0053 26.284V30.134H88.2243ZM91.1503 27.362C91.5609 27.362 91.9276 27.2703 92.2503 27.087C92.5729 26.8963 92.8296 26.6323 93.0203 26.295C93.2109 25.9503 93.3063 25.5543 93.3063 25.107C93.3063 24.6597 93.2109 24.2673 93.0203 23.93C92.8296 23.5927 92.5729 23.3287 92.2503 23.138C91.9276 22.9473 91.5609 22.852 91.1503 22.852C90.7396 22.852 90.3693 22.9473 90.0393 23.138C89.7166 23.3287 89.4599 23.5927 89.2693 23.93C89.0859 24.2673 88.9943 24.6597 88.9943 25.107C88.9943 25.5543 89.0859 25.9503 89.2693 26.295C89.4599 26.6323 89.7166 26.8963 90.0393 27.087C90.3693 27.2703 90.7396 27.362 91.1503 27.362ZM98.1413 28.055C97.584 28.055 97.0816 27.9303 96.6343 27.681C96.1943 27.4243 95.846 27.076 95.5893 26.636C95.3326 26.1887 95.2043 25.679 95.2043 25.107C95.2043 24.5277 95.3326 24.018 95.5893 23.578C95.846 23.138 96.1943 22.7933 96.6343 22.544C97.0743 22.2947 97.5766 22.17 98.1413 22.17C98.7133 22.17 99.2193 22.2947 99.6593 22.544C100.107 22.7933 100.455 23.138 100.704 23.578C100.961 24.018 101.089 24.5277 101.089 25.107C101.089 25.679 100.961 26.1887 100.704 26.636C100.455 27.076 100.107 27.4243 99.6593 27.681C99.212 27.9303 98.706 28.055 98.1413 28.055ZM98.1413 27.362C98.5593 27.362 98.9296 27.2703 99.2523 27.087C99.575 26.8963 99.828 26.6323 100.011 26.295C100.202 25.9503 100.297 25.5543 100.297 25.107C100.297 24.6523 100.202 24.2563 100.011 23.919C99.828 23.5817 99.575 23.3213 99.2523 23.138C98.9296 22.9473 98.563 22.852 98.1523 22.852C97.7416 22.852 97.375 22.9473 97.0523 23.138C96.7296 23.3213 96.473 23.5817 96.2823 23.919C96.0916 24.2563 95.9963 24.6523 95.9963 25.107C95.9963 25.5543 96.0916 25.9503 96.2823 26.295C96.473 26.6323 96.7296 26.8963 97.0523 27.087C97.375 27.2703 97.738 27.362 98.1413 27.362ZM102.758 28V22.225H105.31C105.963 22.225 106.476 22.3497 106.85 22.599C107.232 22.8483 107.422 23.215 107.422 23.699C107.422 24.1683 107.243 24.5313 106.883 24.788C106.524 25.0373 106.051 25.162 105.464 25.162L105.618 24.931C106.308 24.931 106.814 25.0593 107.136 25.316C107.459 25.5727 107.62 25.943 107.62 26.427C107.62 26.9257 107.437 27.3143 107.07 27.593C106.711 27.8643 106.15 28 105.387 28H102.758ZM103.517 27.384H105.354C105.846 27.384 106.216 27.307 106.465 27.153C106.722 26.9917 106.85 26.735 106.85 26.383C106.85 26.031 106.737 25.7743 106.509 25.613C106.282 25.4517 105.923 25.371 105.431 25.371H103.517V27.384ZM103.517 24.788H105.255C105.703 24.788 106.044 24.7037 106.278 24.535C106.52 24.3663 106.641 24.1207 106.641 23.798C106.641 23.4753 106.52 23.2333 106.278 23.072C106.044 22.9107 105.703 22.83 105.255 22.83H103.517V24.788ZM111.871 28.055C111.299 28.055 110.786 27.9303 110.331 27.681C109.884 27.4243 109.532 27.076 109.275 26.636C109.018 26.1887 108.89 25.679 108.89 25.107C108.89 24.5277 109.018 24.018 109.275 23.578C109.532 23.138 109.884 22.7933 110.331 22.544C110.786 22.2947 111.299 22.17 111.871 22.17C112.362 22.17 112.806 22.2653 113.202 22.456C113.598 22.6467 113.91 22.9327 114.137 23.314L113.554 23.71C113.356 23.4167 113.11 23.2003 112.817 23.061C112.524 22.9217 112.205 22.852 111.86 22.852C111.449 22.852 111.079 22.9473 110.749 23.138C110.419 23.3213 110.159 23.5817 109.968 23.919C109.777 24.2563 109.682 24.6523 109.682 25.107C109.682 25.5617 109.777 25.9577 109.968 26.295C110.159 26.6323 110.419 26.8963 110.749 27.087C111.079 27.2703 111.449 27.362 111.86 27.362C112.205 27.362 112.524 27.2923 112.817 27.153C113.11 27.0137 113.356 26.801 113.554 26.515L114.137 26.911C113.91 27.285 113.598 27.571 113.202 27.769C112.806 27.9597 112.362 28.055 111.871 28.055ZM119.884 28L117.508 25.14L118.157 24.755L120.808 28H119.884ZM115.649 28V22.225H116.43V28H115.649ZM116.188 25.426V24.755H118.047V25.426H116.188ZM118.223 25.195L117.497 25.085L119.796 22.225H120.643L118.223 25.195ZM122.041 28V22.225H122.822V26.812L126.683 22.225H127.376V28H126.595V23.402L122.745 28H122.041ZM129.614 28V22.225H130.395V26.812L134.256 22.225H134.949V28H134.168V23.402L130.318 28H129.614ZM132.232 21.389C131.748 21.389 131.356 21.268 131.055 21.026C130.762 20.7767 130.608 20.421 130.593 19.959H131.154C131.161 20.2523 131.264 20.4833 131.462 20.652C131.66 20.8207 131.917 20.905 132.232 20.905C132.547 20.905 132.804 20.8207 133.002 20.652C133.207 20.4833 133.314 20.2523 133.321 19.959H133.882C133.875 20.421 133.721 20.7767 133.42 21.026C133.119 21.268 132.723 21.389 132.232 21.389ZM90.1364 41.055C89.6378 41.055 89.1868 40.9413 88.7834 40.714C88.3801 40.4793 88.0574 40.1457 87.8154 39.713C87.5808 39.273 87.4634 38.7377 87.4634 38.107C87.4634 37.4763 87.5808 36.9447 87.8154 36.512C88.0501 36.072 88.3691 35.7383 88.7724 35.511C89.1758 35.2837 89.6304 35.17 90.1364 35.17C90.6864 35.17 91.1778 35.2947 91.6104 35.544C92.0504 35.786 92.3951 36.1307 92.6444 36.578C92.8938 37.018 93.0184 37.5277 93.0184 38.107C93.0184 38.6937 92.8938 39.207 92.6444 39.647C92.3951 40.087 92.0504 40.4317 91.6104 40.681C91.1778 40.9303 90.6864 41.055 90.1364 41.055ZM87.1554 43.134V35.225H87.9034V36.963L87.8264 38.118L87.9364 39.284V43.134H87.1554ZM90.0814 40.362C90.4921 40.362 90.8588 40.2703 91.1814 40.087C91.5041 39.8963 91.7608 39.6323 91.9514 39.295C92.1421 38.9503 92.2374 38.5543 92.2374 38.107C92.2374 37.6597 92.1421 37.2673 91.9514 36.93C91.7608 36.5927 91.5041 36.3287 91.1814 36.138C90.8588 35.9473 90.4921 35.852 90.0814 35.852C89.6708 35.852 89.3004 35.9473 88.9704 36.138C88.6478 36.3287 88.3911 36.5927 88.2004 36.93C88.0171 37.2673 87.9254 37.6597 87.9254 38.107C87.9254 38.5543 88.0171 38.9503 88.2004 39.295C88.3911 39.6323 88.6478 39.8963 88.9704 40.087C89.3004 40.2703 89.6708 40.362 90.0814 40.362ZM98.2502 41V39.724L98.2172 39.515V37.381C98.2172 36.8897 98.0779 36.512 97.7992 36.248C97.5279 35.984 97.1209 35.852 96.5782 35.852C96.2042 35.852 95.8486 35.9143 95.5112 36.039C95.1739 36.1637 94.8879 36.3287 94.6532 36.534L94.3012 35.951C94.5946 35.7017 94.9466 35.511 95.3572 35.379C95.7679 35.2397 96.2006 35.17 96.6552 35.17C97.4032 35.17 97.9789 35.357 98.3822 35.731C98.7929 36.0977 98.9982 36.6587 98.9982 37.414V41H98.2502ZM96.2592 41.055C95.8266 41.055 95.4489 40.9853 95.1262 40.846C94.8109 40.6993 94.5689 40.5013 94.4002 40.252C94.2316 39.9953 94.1472 39.702 94.1472 39.372C94.1472 39.0713 94.2169 38.8 94.3562 38.558C94.5029 38.3087 94.7376 38.1107 95.0602 37.964C95.3902 37.81 95.8302 37.733 96.3802 37.733H98.3712V38.316H96.4022C95.8449 38.316 95.4562 38.415 95.2362 38.613C95.0236 38.811 94.9172 39.0567 94.9172 39.35C94.9172 39.68 95.0456 39.944 95.3022 40.142C95.5589 40.34 95.9182 40.439 96.3802 40.439C96.8202 40.439 97.1979 40.34 97.5132 40.142C97.8359 39.9367 98.0706 39.6433 98.2172 39.262L98.3932 39.801C98.2466 40.1823 97.9899 40.4867 97.6232 40.714C97.2639 40.9413 96.8092 41.055 96.2592 41.055ZM101.077 41V35.225H101.858V39.812L105.719 35.225H106.412V41H105.631V36.402L101.781 41H101.077ZM103.695 34.389C103.211 34.389 102.819 34.268 102.518 34.026C102.225 33.7767 102.071 33.421 102.056 32.959H102.617C102.625 33.2523 102.727 33.4833 102.925 33.652C103.123 33.8207 103.38 33.905 103.695 33.905C104.011 33.905 104.267 33.8207 104.465 33.652C104.671 33.4833 104.777 33.2523 104.784 32.959H105.345C105.338 33.421 105.184 33.7767 104.883 34.026C104.583 34.268 104.187 34.389 103.695 34.389ZM111.027 41.055C110.469 41.055 109.967 40.9303 109.52 40.681C109.08 40.4243 108.731 40.076 108.475 39.636C108.218 39.1887 108.09 38.679 108.09 38.107C108.09 37.5277 108.218 37.018 108.475 36.578C108.731 36.138 109.08 35.7933 109.52 35.544C109.96 35.2947 110.462 35.17 111.027 35.17C111.599 35.17 112.105 35.2947 112.545 35.544C112.992 35.7933 113.34 36.138 113.59 36.578C113.846 37.018 113.975 37.5277 113.975 38.107C113.975 38.679 113.846 39.1887 113.59 39.636C113.34 40.076 112.992 40.4243 112.545 40.681C112.097 40.9303 111.591 41.055 111.027 41.055ZM111.027 40.362C111.445 40.362 111.815 40.2703 112.138 40.087C112.46 39.8963 112.713 39.6323 112.897 39.295C113.087 38.9503 113.183 38.5543 113.183 38.107C113.183 37.6523 113.087 37.2563 112.897 36.919C112.713 36.5817 112.46 36.3213 112.138 36.138C111.815 35.9473 111.448 35.852 111.038 35.852C110.627 35.852 110.26 35.9473 109.938 36.138C109.615 36.3213 109.358 36.5817 109.168 36.919C108.977 37.2563 108.882 37.6523 108.882 38.107C108.882 38.5543 108.977 38.9503 109.168 39.295C109.358 39.6323 109.615 39.8963 109.938 40.087C110.26 40.2703 110.623 40.362 111.027 40.362ZM115.644 41V35.225H116.425V37.777H120.066V35.225H120.847V41H120.066V38.448H116.425V41H115.644ZM85.5587 56.134C85.1553 55.4667 84.84 54.6967 84.6127 53.824C84.3927 52.944 84.2827 51.998 84.2827 50.986C84.2827 49.974 84.3927 49.028 84.6127 48.148C84.84 47.2607 85.1553 46.4907 85.5587 45.838H86.3067C85.874 46.5933 85.555 47.3963 85.3497 48.247C85.1517 49.0903 85.0527 50.0033 85.0527 50.986C85.0527 51.9687 85.1517 52.8853 85.3497 53.736C85.555 54.5793 85.874 55.3787 86.3067 56.134H85.5587ZM87.8698 54V48.225H88.6508V53.318H92.1818V48.225H92.9628V54H87.8698ZM93.1608 55.397V53.934L93.3588 54H92.1818V53.318H93.8978V55.397H93.1608ZM97.8643 54.055C97.263 54.055 96.735 53.9303 96.2803 53.681C95.8257 53.4243 95.47 53.076 95.2133 52.636C94.9567 52.1887 94.8283 51.679 94.8283 51.107C94.8283 50.535 94.9493 50.029 95.1913 49.589C95.4407 49.149 95.778 48.8043 96.2033 48.555C96.636 48.2983 97.12 48.17 97.6553 48.17C98.198 48.17 98.6783 48.2947 99.0963 48.544C99.5217 48.786 99.8553 49.1307 100.097 49.578C100.339 50.018 100.46 50.5277 100.46 51.107C100.46 51.1437 100.457 51.184 100.449 51.228C100.449 51.2647 100.449 51.305 100.449 51.349H95.4223V50.766H100.031L99.7233 50.997C99.7233 50.579 99.6317 50.2087 99.4483 49.886C99.2723 49.556 99.0303 49.2993 98.7223 49.116C98.4143 48.9327 98.0587 48.841 97.6553 48.841C97.2593 48.841 96.9037 48.9327 96.5883 49.116C96.273 49.2993 96.0273 49.556 95.8513 49.886C95.6753 50.216 95.5873 50.5937 95.5873 51.019V51.14C95.5873 51.58 95.6827 51.9687 95.8733 52.306C96.0713 52.636 96.3427 52.8963 96.6873 53.087C97.0393 53.2703 97.439 53.362 97.8863 53.362C98.2383 53.362 98.5647 53.2997 98.8653 53.175C99.1733 53.0503 99.4373 52.8597 99.6573 52.603L100.097 53.109C99.8407 53.417 99.518 53.6517 99.1293 53.813C98.748 53.9743 98.3263 54.055 97.8643 54.055ZM102.189 54V48.225H102.97V50.777H106.611V48.225H107.392V54H106.611V51.448H102.97V54H102.189ZM110.712 54V48.698L110.91 48.907H108.523V48.225H113.682V48.907H111.295L111.493 48.698V54H110.712ZM117.792 54.055C117.294 54.055 116.843 53.9413 116.439 53.714C116.036 53.4793 115.713 53.1457 115.471 52.713C115.237 52.273 115.119 51.7377 115.119 51.107C115.119 50.4763 115.237 49.9447 115.471 49.512C115.706 49.072 116.025 48.7383 116.428 48.511C116.832 48.2837 117.286 48.17 117.792 48.17C118.342 48.17 118.834 48.2947 119.266 48.544C119.706 48.786 120.051 49.1307 120.3 49.578C120.55 50.018 120.674 50.5277 120.674 51.107C120.674 51.6937 120.55 52.207 120.3 52.647C120.051 53.087 119.706 53.4317 119.266 53.681C118.834 53.9303 118.342 54.055 117.792 54.055ZM114.811 56.134V48.225H115.559V49.963L115.482 51.118L115.592 52.284V56.134H114.811ZM117.737 53.362C118.148 53.362 118.515 53.2703 118.837 53.087C119.16 52.8963 119.417 52.6323 119.607 52.295C119.798 51.9503 119.893 51.5543 119.893 51.107C119.893 50.6597 119.798 50.2673 119.607 49.93C119.417 49.5927 119.16 49.3287 118.837 49.138C118.515 48.9473 118.148 48.852 117.737 48.852C117.327 48.852 116.956 48.9473 116.626 49.138C116.304 49.3287 116.047 49.5927 115.856 49.93C115.673 50.2673 115.581 50.6597 115.581 51.107C115.581 51.5543 115.673 51.9503 115.856 52.295C116.047 52.6323 116.304 52.8963 116.626 53.087C116.956 53.2703 117.327 53.362 117.737 53.362ZM122.429 56.134H121.681C122.121 55.3787 122.44 54.5793 122.638 53.736C122.844 52.8853 122.946 51.9687 122.946 50.986C122.946 50.0033 122.844 49.0903 122.638 48.247C122.44 47.3963 122.121 46.5933 121.681 45.838H122.429C122.847 46.4907 123.166 47.2607 123.386 48.148C123.606 49.028 123.716 49.974 123.716 50.986C123.716 51.998 123.606 52.944 123.386 53.824C123.166 54.6967 122.847 55.4667 122.429 56.134Z" fill="black"/>
<rect x="68.5" y="82.5" width="71" height="35" rx="6.5" fill="#5EB4FF" stroke="#003B72"/>
<path d="M79.138 103V95.3H85.771V103H84.693V95.971L84.957 96.257H79.952L80.227 95.971V103H79.138ZM90.5921 103.066C89.9688 103.066 89.4188 102.938 88.9421 102.681C88.4728 102.424 88.1061 102.072 87.8421 101.625C87.5855 101.178 87.4571 100.664 87.4571 100.085C87.4571 99.5057 87.5818 98.9923 87.8311 98.545C88.0878 98.0977 88.4361 97.7493 88.8761 97.5C89.3235 97.2433 89.8258 97.115 90.3831 97.115C90.9478 97.115 91.4465 97.2397 91.8791 97.489C92.3118 97.7383 92.6491 98.0903 92.8911 98.545C93.1405 98.9923 93.2651 99.5167 93.2651 100.118C93.2651 100.162 93.2615 100.213 93.2541 100.272C93.2541 100.331 93.2505 100.386 93.2431 100.437H88.2821V99.678H92.6931L92.2641 99.942C92.2715 99.568 92.1945 99.2343 92.0331 98.941C91.8718 98.6477 91.6481 98.4203 91.3621 98.259C91.0835 98.0903 90.7571 98.006 90.3831 98.006C90.0165 98.006 89.6901 98.0903 89.4041 98.259C89.1181 98.4203 88.8945 98.6513 88.7331 98.952C88.5718 99.2453 88.4911 99.5827 88.4911 99.964V100.14C88.4911 100.529 88.5791 100.877 88.7551 101.185C88.9385 101.486 89.1915 101.72 89.5141 101.889C89.8368 102.058 90.2071 102.142 90.6251 102.142C90.9698 102.142 91.2815 102.083 91.5601 101.966C91.8461 101.849 92.0955 101.673 92.3081 101.438L92.8911 102.12C92.6271 102.428 92.2971 102.663 91.9011 102.824C91.5125 102.985 91.0761 103.066 90.5921 103.066ZM97.9944 103.066C97.5104 103.066 97.0667 102.956 96.6634 102.736C96.2674 102.509 95.9484 102.175 95.7064 101.735C95.4717 101.295 95.3544 100.745 95.3544 100.085C95.3544 99.425 95.468 98.875 95.6954 98.435C95.93 97.995 96.2454 97.665 96.6414 97.445C97.0447 97.225 97.4957 97.115 97.9944 97.115C98.5664 97.115 99.0724 97.2397 99.5124 97.489C99.9524 97.7383 100.301 98.0867 100.557 98.534C100.814 98.974 100.942 99.491 100.942 100.085C100.942 100.679 100.814 101.2 100.557 101.647C100.301 102.094 99.9524 102.443 99.5124 102.692C99.0724 102.941 98.5664 103.066 97.9944 103.066ZM94.9034 105.134V97.17H95.9154V98.743L95.8494 100.096L95.9594 101.449V105.134H94.9034ZM97.9064 102.142C98.2804 102.142 98.614 102.058 98.9074 101.889C99.208 101.72 99.4427 101.482 99.6114 101.174C99.7874 100.859 99.8754 100.496 99.8754 100.085C99.8754 99.667 99.7874 99.3077 99.6114 99.007C99.4427 98.699 99.208 98.4607 98.9074 98.292C98.614 98.1233 98.2804 98.039 97.9064 98.039C97.5397 98.039 97.206 98.1233 96.9054 98.292C96.612 98.4607 96.3774 98.699 96.2014 99.007C96.0327 99.3077 95.9484 99.667 95.9484 100.085C95.9484 100.496 96.0327 100.859 96.2014 101.174C96.3774 101.482 96.612 101.72 96.9054 101.889C97.206 102.058 97.5397 102.142 97.9064 102.142ZM105.073 103.066C104.449 103.066 103.899 102.938 103.423 102.681C102.953 102.424 102.587 102.072 102.323 101.625C102.066 101.178 101.938 100.664 101.938 100.085C101.938 99.5057 102.062 98.9923 102.312 98.545C102.568 98.0977 102.917 97.7493 103.357 97.5C103.804 97.2433 104.306 97.115 104.864 97.115C105.428 97.115 105.927 97.2397 106.36 97.489C106.792 97.7383 107.13 98.0903 107.372 98.545C107.621 98.9923 107.746 99.5167 107.746 100.118C107.746 100.162 107.742 100.213 107.735 100.272C107.735 100.331 107.731 100.386 107.724 100.437H102.763V99.678H107.174L106.745 99.942C106.752 99.568 106.675 99.2343 106.514 98.941C106.352 98.6477 106.129 98.4203 105.843 98.259C105.564 98.0903 105.238 98.006 104.864 98.006C104.497 98.006 104.171 98.0903 103.885 98.259C103.599 98.4203 103.375 98.6513 103.214 98.952C103.052 99.2453 102.972 99.5827 102.972 99.964V100.14C102.972 100.529 103.06 100.877 103.236 101.185C103.419 101.486 103.672 101.72 103.995 101.889C104.317 102.058 104.688 102.142 105.106 102.142C105.45 102.142 105.762 102.083 106.041 101.966C106.327 101.849 106.576 101.673 106.789 101.438L107.372 102.12C107.108 102.428 106.778 102.663 106.382 102.824C105.993 102.985 105.557 103.066 105.073 103.066ZM109.384 103V97.17H110.44V101.416L114.015 97.17H114.972V103H113.916V98.754L110.352 103H109.384ZM112.112 96.411C111.577 96.411 111.155 96.2827 110.847 96.026C110.546 95.762 110.392 95.3843 110.385 94.893H111.1C111.107 95.1717 111.199 95.3917 111.375 95.553C111.558 95.7143 111.8 95.795 112.101 95.795C112.402 95.795 112.644 95.7143 112.827 95.553C113.01 95.3917 113.106 95.1717 113.113 94.893H113.85C113.843 95.3843 113.685 95.762 113.377 96.026C113.069 96.2827 112.647 96.411 112.112 96.411ZM118.177 103V97.819L118.441 98.094H116.043V97.17H121.367V98.094H118.98L119.233 97.819V103H118.177ZM122.446 103V97.17H123.502V101.416L127.077 97.17H128.034V103H126.978V98.754L123.414 103H122.446Z" fill="black"/>
</svg>
