<svg width="325" height="209" viewBox="0 0 325 209" fill="none" xmlns="http://www.w3.org/2000/svg">
<path d="M130.96 202.186L132.136 200.446L137.345 196.791L139.026 198.183L142.722 194.703L147.763 189.308L149.107 186.698L151.292 178.171L152.972 170.514L154.988 166.164L155.66 162.161L158.349 157.637L160.029 152.764L161.709 148.24L162.549 145.456V139.713L164.398 134.492L162.549 133.448L154.988 131.882L145.915 130.142L145.075 131.882L144.066 134.492L142.05 136.581L128.272 150.154L126.928 151.546H123.399L119.198 153.287L115.838 153.983L113.15 156.941L110.461 160.421L109.453 162.161V163.032L114.662 166.164L115.838 168.774L116.342 171.558L117.35 174.343L118.022 177.649L118.526 179.737L117.35 184.088V185.828L118.526 189.308L120.711 194.703L121.215 196.791V200.446L122.223 203.23L126.928 206.014L130.96 202.186Z" fill="#8A8F84" stroke="black"/>
<path d="M75.0075 150.85L81.5605 134.144L94.6666 119.179L105.252 112.392L110.461 108.912L114.158 107.346L117.518 112.392L120.711 115.35L120.039 117.091L117.518 124.399L122.559 126.14L121.383 129.62L129.112 131.708L133.649 129.62L137.849 133.622L139.698 135.537L140.538 136.929V137.973V138.843L128.272 150.85L127.6 151.546H124.071L120.039 153.286L116.678 153.983L113.149 157.463L109.789 161.987H108.613H105.252L98.0271 160.421L91.8101 157.463L81.5605 153.286L75.0075 150.85Z" fill="#7DFF8A" stroke="black"/>
<path d="M81.5144 134.106L75.0656 150.939L67.2591 143.925L64.7136 134.983L63.8651 132.703V130.599L65.053 125.339L64.3742 115.694L69.8047 110.259L72.0109 109.207H76.9323L81.1749 110.259L82.0235 110.96V113.766L83.0417 114.467L85.0782 113.24L87.7934 115.694L94.4119 114.642L98.994 115.694L95.1776 118.357L94.8433 118.591L81.5144 134.106Z" fill="#8A8F84"/>
<path d="M99.3334 116.045L94.921 118.5L94.8433 118.591M75.0656 150.939L81.5144 134.106L94.8433 118.591M75.0656 150.939L67.2591 143.925L64.7136 134.983L63.8651 132.703V130.599L65.053 125.339L64.3742 115.694L69.8047 110.259L72.0109 109.207H76.9323L81.1749 110.259L82.0235 110.96V113.766L83.0417 114.467L85.0782 113.24L87.7934 115.694L94.4119 114.642L98.994 115.694L94.8433 118.591M75.0656 150.939L81.3447 134.106" stroke="black"/>
<path d="M175.991 35.3017L175.487 29.3851L176.663 22.5984L178.176 11.6352L182.208 4.15236L193.802 1.36806L223.207 11.1131L235.473 18.5959L243.37 41.0444L244.21 45.3948L239.673 46.4389L232.28 48.3531L221.527 47.135L210.437 38.7821L194.642 33.0395H180.696L175.991 35.3017Z" fill="#8A8F84" stroke="black"/>
<path d="M168.598 51.4855L175.487 38.2601L175.991 35.3017L180.528 33.0395H194.642L210.269 39.1301L221.022 46.787L231.944 48.5272L244.21 45.3948L247.403 52.7036L242.362 62.1006H225.727L213.293 59.1423L206.068 62.1006L204.052 61.4046L199.515 57.5761L196.995 59.3163L195.65 59.1423V56.01H193.298H192.626L188.593 60.8825L188.257 61.0565L168.598 51.4855Z" fill="#8A8F84" stroke="black"/>
<path d="M145.411 129.794L152.804 110.652L166.078 105.083L167.086 105.431L169.606 114.132L168.934 116.743L167.926 117.961V125.443L165.07 129.794L164.062 131.708L163.893 134.492L162.045 133.448L145.411 129.794Z" fill="#8A8F84" stroke="black"/>
<path d="M179.016 71.4976L183.889 66.9731L188.425 61.4045L195.146 65.0589L195.818 66.2771L196.323 69.4094L196.659 72.0197V73.4118L202.372 79.5025L202.876 80.7206L203.548 83.853L203.212 86.2892L202.372 88.2034L198.675 92.5539L194.81 95.8603L189.265 99.5147L187.921 99.8627H180.864L179.856 99.5147H178.176H176.495L175.655 100.037L174.311 100.211L172.295 99.8627L169.942 99.5147H169.102L170.447 95.8603L174.143 85.4191L179.016 71.4976Z" fill="#8A8F84" stroke="black"/>
<path d="M205.9 62.1006L212.957 59.1423L225.391 62.1006H241.858L241.018 67.8432L240.177 72.7158L240.514 74.63L241.858 81.4167V82.6348L240.009 84.7231L237.993 86.8113L235.977 86.4633L225.391 82.4608L217.83 78.9804L217.326 78.1104L218.334 72.3677L217.83 66.7991L211.781 65.0589L205.732 62.1006H205.9Z" fill="#8A8F84" stroke="black"/>
<path d="M278.319 78.9804L275.967 76.1961L285.208 75.5001L290.417 73.4118L293.778 71.8457L295.626 66.9731L300.331 62.7967L306.044 58.7942L309.908 46.961L310.748 45.5688H311.757L318.646 49.5713L320.494 50.7894L320.83 52.1815L321.67 59.4903L323.687 75.6741L324.023 78.1103V102.647L322.678 105.779L321.838 107.52H321.502L319.15 106.475L314.445 107.694L313.269 105.953L308.228 97.6004L300.331 94.2941L298.987 84.375L289.073 90.1176L285.545 86.4632L283.528 88.3774L279.832 86.8113L279.328 80.3726L278.319 78.9804Z" fill="#B8B8B8" stroke="black"/>
<path d="M121.056 98.5104L113.589 106.752L113.758 107.453L116.813 112.363L119.359 114.642L119.868 115.519L116.983 124.286L121.734 126.215L120.716 129.372L129.032 131.826L132.765 129.898L136.329 132.703L139.384 136.561L139.893 137.788L143.626 134.106L147.869 123.234L151.942 113.064L152.96 110.259L159.409 106.576L165.349 104.297L167.046 103.771L169.252 99.3871L179.095 71.3316L184.186 66.5972L188.259 61.1614L168.573 51.342L175.531 38.3663L176.04 35.3854L175.701 34.158L172.137 32.9305L171.119 33.2812L168.912 35.3854L166.876 38.3663L154.318 61.1614L146.172 70.1042L137.008 73.9618L134.123 79.0469L130.729 84.4826L126.656 90.7951L125.977 91.8472L125.298 92.8993L123.941 94.6528L121.056 98.5104Z" fill="#8A8F84" stroke="black"/>
<path d="M1.41198 164.424L2.25212 164.076L3.59633 156.419L18.8867 154.679L21.2391 154.853L28.2962 157.637L33.505 170.166L33.0009 174.517L31.1527 175.213L25.4398 179.389L22.4153 180.085L10.6534 191.745L9.30922 195.399L7.29291 201.838L4.10041 207.928L3.26027 208.102L1.24396 207.754V164.424H1.41198Z" fill="#B8B8B8" stroke="black"/>
<path d="M33.0009 53.2257L42.7464 48.5272H46.275L62.7416 50.2673L66.1021 53.7477L68.9586 60.0124L67.7824 61.2305L72.1511 67.8433L73.8313 69.2354L71.983 72.1937L67.7824 70.9756H67.2783L63.9178 75.3261L64.4218 79.8505L65.7661 82.8089L65.9341 86.2892L67.2783 87.5074L70.9749 88.8995L72.1511 92.3799L73.1592 93.25L77.1918 92.0319L79.8803 92.5539L83.5769 91.8578L87.1054 92.7279L88.9537 93.9461L87.1054 94.0258L81.3925 94.1201L79.3762 94.4681L78.5361 94.6422V95.8603V96.2083L79.3762 96.5564L80.3843 96.9044L79.5442 98.2965L78.8721 98.8186L78.7041 99.8627L79.5442 101.255H82.4007L83.0728 100.733L84.0809 100.559L85.2571 100.907L85.7612 101.603L87.1054 101.081L87.6095 100.907L87.9455 101.255L88.6176 102.473V103.343L88.4496 103.691L87.9455 104.213L87.2734 104.561L85.9292 104.387L79.5442 103.169L73.8313 102.995L71.647 102.821L65.43 91.5098L63.9178 88.2035L63.0776 84.7231L60.8933 78.8064L57.0287 72.8898L56.0205 72.0197L56.8607 70.8016L50.6437 64.7109L48.9634 63.3188L42.0743 60.3604L34.3451 61.9266L33.841 61.5786L33.0009 53.2257Z" fill="#B8B8B8" stroke="black"/>
<path d="M106.243 146.345L107.153 145.035L108.915 142.5H112.767H114.174L113.083 141.612L107.058 136.712L106.243 136.049V137.1V144.75V146.345ZM108.393 141.5L108.243 141.715L107.243 143.155V138.151L111.36 141.5H108.654H108.393ZM112.577 152.326L109.279 144.995L108.916 144.188L108.412 144.915L105.307 149.4V134.05L116.947 143.5H111.485H110.711L111.029 144.206L114.313 151.487L112.577 152.326Z" fill="black" stroke="black"/>
</svg>
