<svg width="149" height="78" viewBox="0 0 149 78" fill="none" xmlns="http://www.w3.org/2000/svg">
<rect width="149" height="78" rx="18" fill="#B6E9FF"/>
<g filter="url(#filter0_i_185_517)">
<path d="M25.9647 35.3865C28.293 29.5025 34.4778 24.9948 39.2735 20.6944C40.226 19.8403 40.2684 19.5642 39.0514 20.4646C34.373 23.9257 29.7981 27.5123 25.1618 31.0202C24.4674 31.5456 20.2158 35.6273 19.0968 35.3405C18.6272 35.2202 20.014 33.1798 20.1048 33.0425C20.9066 31.8291 20.8889 30.4815 21.6765 29.3044C23.1075 27.1658 23.8158 24.8046 25.5205 22.8392C26.3259 21.9106 26.9545 22.1498 25.4864 22.1498C24.004 22.1498 22.0203 22.4983 20.6002 22.1345C20.0889 22.0035 21.2822 21.6239 21.3519 21.5983C23.8713 20.6714 27.4292 21.0144 30.0992 20.6484C34.42 20.0562 38.7548 19.3558 42.9809 18.3504C43.3526 18.2619 45.0995 17.5722 45.031 18.4117C44.9263 19.6947 44.0609 21.0344 43.4592 22.1498C41.2851 26.18 38.84 30.0938 36.4204 34.0077C32.7454 39.9523 29.0119 45.8526 25.5547 51.9017C25.4803 52.0319 25.3202 52.4165 25.4522 52.3307C26.0522 51.9406 26.5307 51.4188 27.0581 50.9519C30.3888 48.0034 33.7569 45.0907 37.138 42.1887C44.8288 35.5876 52.4177 28.8024 60.3728 22.4562C61.1832 21.8098 64.6773 19.1805 62.5255 21.9047C57.359 28.4453 50.6858 34.0883 45.0652 40.3196C42.5994 43.0533 40.2079 45.8412 37.8555 48.6538C37.7278 48.8066 35.7398 51.3292 36.1129 51.0438C43.6547 45.2753 49.8973 37.9155 56.4776 31.3113C58.6064 29.1748 60.697 26.9561 62.9697 24.9381C63.3469 24.6031 64.5977 23.9322 64.4389 24.3866C63.7704 26.2993 62.013 28.1885 60.7487 29.7793C58.504 32.6036 56.0164 35.2508 53.6074 37.9603C52.3304 39.3966 50.9935 40.8454 49.8488 42.3725C49.3448 43.0449 51.4057 41.5384 52.104 41.0244C58.0991 36.6112 63.8754 31.9292 69.9743 27.6344C70.7959 27.0559 71.7489 26.2616 72.7249 25.8726C73.6381 25.5087 72.1687 27.6242 71.6144 28.3698C67.6992 33.6362 62.8195 38.4277 58.2373 43.2305C57.2416 44.2741 56.261 45.3392 55.2304 46.3558C55.2119 46.3741 54.3524 47.1585 55.0083 46.5703C59.5105 42.533 64.0497 38.5153 68.6076 34.5286C71.0718 32.3731 78.5909 26.0974 76.4835 28.5383C74.9632 30.2992 72.9898 31.8123 71.2556 33.3949C68.4611 35.9452 65.7312 38.5515 62.9355 41.101C60.1161 43.6721 56.8921 45.9583 54.1541 48.5772C53.6648 49.0452 53.2949 49.432 52.6507 49.7569C51.0197 50.5796 49.4292 51.4559 47.8328 52.3307C46.907 52.8381 47.582 52.6191 48.1233 52.346C50.7176 51.0374 53.2546 49.6476 55.6575 48.0564C62.7894 43.3336 69.8794 38.5939 76.2443 33.0272C79.5491 30.1368 83.0786 27.4654 86.3412 24.5398C87.0076 23.9422 88.3432 22.1498 89.4335 22.1498C89.6641 22.1498 89.1929 22.5032 89.0577 22.6707C87.7744 24.2597 86.1206 25.6247 84.6499 27.0676C77.6329 33.9515 71.2165 41.2798 65.1565 48.853C63.2098 51.2858 61.1234 53.6194 59.4844 56.1914C59.4075 56.3121 58.9608 57.0274 59.399 56.5438C61.3336 54.4087 64.0332 52.6443 66.4378 50.9672C72.0359 47.0628 77.6892 43.2418 83.7615 39.9519C87.1834 38.098 90.4549 35.9192 93.4825 33.5787C95.9825 31.6461 103.315 25.6836 100.761 27.5578C91.042 34.6883 82.9095 43.5826 74.9459 52.2541C73.9216 53.3694 71.5632 55.2415 71.1873 56.7583C71.0293 57.3959 71.9211 56.5835 72.1099 56.4672C78.1772 52.7266 85.1882 50.1908 92.0133 47.7959C92.575 47.5988 97.3094 46.3655 97.3094 46.9686C97.3094 48.0359 95.7915 49.9512 95.1568 50.8293C94.5015 51.7359 93.7511 52.7615 93.38 53.8015C93.2227 54.2424 95.3438 53.1492 95.601 53.0354C101.355 50.4908 106.039 47.3616 110.157 42.8934C113.527 39.2373 116.164 34.928 119.758 31.5258C120.426 30.8934 122.264 30.0189 122.646 29.335C122.847 28.9745 121.748 29.4155 121.313 29.5188C119.156 30.0321 117.096 30.9603 115.163 31.9394C108.57 35.2789 102.349 39.6643 96.3869 43.8433C94.8487 44.9214 90.5663 48.3048 91.5349 46.7848C91.8835 46.2377 92.7883 45.7547 93.2604 45.314C95.092 43.6046 96.6987 41.7051 98.437 39.9213C103.122 35.1141 110.212 27.3893 118.187 27.3893C119.392 27.3893 116.795 27.393 116.376 27.5272C114.547 28.1127 113.013 28.9394 111.353 29.9478C110.158 30.6736 93.9018 39.9497 93.6363 39.3544C93.4074 38.8414 94.7603 38.1224 95.003 37.7305C95.7155 36.5805 98.4192 35.7134 99.5304 34.8656C103.923 31.514 107.674 27.6703 112.275 24.5091C112.804 24.1461 119.292 19.0964 119.998 19.7292C120.01 19.7407 119.758 20.3547 119.758 20.4952C119.758 21.9335 118.074 22.2363 117.674 23.5286C117.374 24.4982 115.402 28.7935 116.137 29.5342C116.204 29.6018 123.874 24.1825 124.679 23.6512C125.993 22.7838 127.525 22.0378 128.984 21.3838C129.457 21.1718 129.956 20.9917 130.453 20.8323C130.641 20.7723 131 20.4394 131 20.6178C131 21.1691 128.972 22.7083 128.608 23.0384C126.954 24.5403 125.302 26.0119 123.756 27.6038C122.162 29.2448 119.8 30.1823 118.289 31.9241C116.954 33.4629 115.269 35.4686 114.531 37.3169C114.163 38.2374 113.637 40.9018 112.31 40.9018C106.849 40.9018 101.325 36.2682 98.3003 32.5676C96.9089 30.865 93.8774 26.3607 95.0885 24.0801C95.8264 22.6906 96.6573 21.386 97.5486 20.0662C97.8842 19.5694 98.0823 18.7274 98.6079 18.3504C99.138 17.9701 100.922 18.2891 101.615 18.2891C104.163 18.2891 106.622 18.1826 108.927 19.3309C110.345 20.0375 110 19.7228 109.61 20.771" stroke="#7BBBF5" stroke-width="16" stroke-linecap="round"/>
</g>
<path d="M40.2173 33H38.7158V23.9985H33.4058V22.4971H45.5273V23.9985H40.2173V33ZM55.6787 28.8618C55.6787 29.4331 55.5884 29.9702 55.4077 30.4731C55.2271 30.9712 54.9683 31.4082 54.6313 31.7842C54.2993 32.1602 53.8989 32.458 53.4302 32.6777C52.9663 32.8926 52.4487 33 51.8774 33H49.27C48.6987 33 48.1787 32.8926 47.71 32.6777C47.2412 32.458 46.8384 32.1602 46.5015 31.7842C46.1694 31.4082 45.9131 30.9712 45.7324 30.4731C45.5518 29.9702 45.4614 29.4331 45.4614 28.8618C45.4614 28.2954 45.5518 27.7632 45.7324 27.2651C45.9131 26.7671 46.1694 26.3325 46.5015 25.9614C46.8384 25.5854 47.2412 25.29 47.71 25.0752C48.1787 24.8604 48.6987 24.7529 49.27 24.7529H51.8774C52.4487 24.7529 52.9663 24.8604 53.4302 25.0752C53.8989 25.29 54.2993 25.5854 54.6313 25.9614C54.9683 26.3325 55.2271 26.7671 55.4077 27.2651C55.5884 27.7632 55.6787 28.2954 55.6787 28.8618ZM54.1772 28.8618C54.1772 28.5005 54.1235 28.1611 54.0161 27.8438C53.9136 27.5215 53.7622 27.2432 53.562 27.0088C53.3667 26.7695 53.1274 26.5815 52.8442 26.4448C52.561 26.3032 52.2388 26.2324 51.8774 26.2324H49.27C48.9087 26.2324 48.584 26.3032 48.2959 26.4448C48.0127 26.5815 47.771 26.7695 47.5708 27.0088C47.3755 27.2432 47.2241 27.5215 47.1167 27.8438C47.0142 28.1611 46.9629 28.5005 46.9629 28.8618C46.9629 29.2231 47.0142 29.5649 47.1167 29.8872C47.2241 30.2046 47.3755 30.4829 47.5708 30.7222C47.771 30.9614 48.0127 31.1519 48.2959 31.2935C48.584 31.4302 48.9087 31.4985 49.27 31.4985H51.8774C52.2388 31.4985 52.561 31.4302 52.8442 31.2935C53.1274 31.1519 53.3667 30.9614 53.562 30.7222C53.7622 30.4829 53.9136 30.2046 54.0161 29.8872C54.1235 29.5649 54.1772 29.2231 54.1772 28.8618ZM66.2476 24.7529V28.8765C66.2476 29.4478 66.1401 29.9849 65.9253 30.4878C65.7104 30.9858 65.415 31.4229 65.0391 31.7988C64.668 32.1699 64.2334 32.4629 63.7354 32.6777C63.2373 32.8926 62.7051 33 62.1387 33H61.311C60.7446 33 60.2124 32.8926 59.7144 32.6777C59.2163 32.458 58.7793 32.1626 58.4033 31.7915C58.0322 31.4155 57.7393 30.9785 57.5244 30.4805C57.3096 29.9775 57.2021 29.4429 57.2021 28.8765V24.7529H58.7036V28.8765C58.7036 29.2378 58.772 29.5796 58.9087 29.9019C59.0454 30.2192 59.231 30.4976 59.4653 30.7368C59.7046 30.9712 59.9805 31.1567 60.293 31.2935C60.6104 31.4302 60.9497 31.4985 61.311 31.4985H62.1387C62.5 31.4985 62.8394 31.4302 63.1567 31.2935C63.4741 31.1567 63.75 30.9712 63.9844 30.7368C64.2188 30.4976 64.4043 30.2192 64.541 29.9019C64.6777 29.5796 64.7461 29.2378 64.7461 28.8765V24.7529H66.2476ZM77.9883 33H75.9448L73.6011 30.7661H70.5615V29.2793H74.7144C74.9243 29.2793 75.1221 29.2378 75.3076 29.1548C75.4932 29.0718 75.6543 28.9619 75.791 28.8252C75.9277 28.6836 76.0352 28.52 76.1133 28.3345C76.1914 28.1489 76.2305 27.9536 76.2305 27.7485C76.2305 27.5386 76.1914 27.3433 76.1133 27.1626C76.0352 26.9771 75.9277 26.8159 75.791 26.6792C75.6543 26.5425 75.4932 26.4351 75.3076 26.3569C75.1221 26.2739 74.9243 26.2324 74.7144 26.2324H69.7778V33H68.2764V24.7529H74.7144C75.1294 24.7529 75.52 24.8335 75.8862 24.9946C76.2524 25.1509 76.5698 25.3657 76.8384 25.6392C77.1118 25.9077 77.3267 26.2251 77.4829 26.5913C77.6392 26.9526 77.7173 27.3384 77.7173 27.7485C77.7173 28.0854 77.6636 28.4102 77.5562 28.7227C77.4487 29.0303 77.2974 29.3135 77.1021 29.5723C76.9116 29.8262 76.6846 30.0459 76.4209 30.2314C76.1572 30.417 75.8691 30.5537 75.5566 30.6416L77.9883 33ZM80.9839 33H79.4971V24.7529H80.9839V33ZM92.1899 30.5684C92.1899 30.9053 92.1265 31.2227 91.9995 31.5205C91.8726 31.8135 91.6992 32.0698 91.4795 32.2896C91.2646 32.5093 91.0083 32.6826 90.7104 32.8096C90.4175 32.9365 90.1025 33 89.7656 33H82.7563V31.4985H89.7656C89.8975 31.4985 90.0195 31.4766 90.1318 31.4326C90.249 31.3838 90.3491 31.3179 90.4321 31.2349C90.52 31.147 90.5884 31.0469 90.6372 30.9346C90.686 30.8223 90.7104 30.7002 90.7104 30.5684C90.7104 30.4365 90.686 30.3145 90.6372 30.2021C90.5884 30.085 90.52 29.9849 90.4321 29.9019C90.3491 29.814 90.249 29.7456 90.1318 29.6968C90.0195 29.6479 89.8975 29.6235 89.7656 29.6235H85.1733C84.8413 29.6235 84.5288 29.5601 84.2358 29.4331C83.9429 29.3062 83.6865 29.1328 83.4668 28.9131C83.2471 28.6885 83.0737 28.4272 82.9468 28.1294C82.8198 27.8315 82.7563 27.5142 82.7563 27.1772C82.7563 26.8501 82.8198 26.54 82.9468 26.2471C83.0737 25.9492 83.2471 25.6904 83.4668 25.4707C83.6865 25.251 83.9429 25.0776 84.2358 24.9507C84.5288 24.8188 84.8413 24.7529 85.1733 24.7529H91.6406V26.2324H85.1733C85.0464 26.2324 84.9243 26.2593 84.8071 26.313C84.6948 26.3618 84.5972 26.4302 84.5142 26.5181C84.4312 26.6011 84.3652 26.7012 84.3164 26.8184C84.2676 26.9307 84.2432 27.0503 84.2432 27.1772C84.2432 27.3091 84.2676 27.4336 84.3164 27.5508C84.3652 27.6631 84.4312 27.7632 84.5142 27.8511C84.5972 27.9341 84.6948 28 84.8071 28.0488C84.9243 28.0977 85.0464 28.1221 85.1733 28.1221H89.7656C90.1025 28.1221 90.4175 28.188 90.7104 28.3198C91.0083 28.4468 91.2646 28.6226 91.4795 28.8472C91.6992 29.0669 91.8726 29.3257 91.9995 29.6235C92.1265 29.9214 92.1899 30.2363 92.1899 30.5684ZM98.313 33H96.8115V26.2324H92.8418V24.7529H102.275V26.2324H98.313V33ZM105.432 23.6543C105.422 23.9033 105.383 24.1401 105.315 24.3647C105.251 24.5894 105.181 24.7871 105.103 24.958C105.015 25.1582 104.915 25.3486 104.802 25.5293L103.835 25.5146C103.87 25.4512 103.904 25.3804 103.938 25.3022C103.967 25.2339 103.999 25.1533 104.033 25.0605C104.072 24.9678 104.106 24.8604 104.136 24.7383C104.004 24.7188 103.879 24.6772 103.762 24.6138C103.645 24.5454 103.542 24.4624 103.455 24.3647C103.367 24.2622 103.298 24.1475 103.25 24.0205C103.201 23.8887 103.176 23.752 103.176 23.6104C103.176 23.459 103.206 23.3149 103.264 23.1782C103.323 23.0415 103.403 22.9219 103.506 22.8193C103.608 22.7168 103.728 22.6362 103.865 22.5776C104.001 22.5142 104.148 22.4824 104.304 22.4824C104.456 22.4824 104.6 22.5142 104.736 22.5776C104.873 22.6362 104.993 22.7192 105.095 22.8267C105.198 22.9292 105.278 23.0513 105.337 23.1929C105.4 23.3345 105.432 23.4883 105.432 23.6543ZM116.257 30.5684C116.257 30.9053 116.194 31.2227 116.067 31.5205C115.94 31.8135 115.767 32.0698 115.547 32.2896C115.332 32.5093 115.076 32.6826 114.778 32.8096C114.485 32.9365 114.17 33 113.833 33H106.824V31.4985H113.833C113.965 31.4985 114.087 31.4766 114.199 31.4326C114.316 31.3838 114.417 31.3179 114.5 31.2349C114.587 31.147 114.656 31.0469 114.705 30.9346C114.753 30.8223 114.778 30.7002 114.778 30.5684C114.778 30.4365 114.753 30.3145 114.705 30.2021C114.656 30.085 114.587 29.9849 114.5 29.9019C114.417 29.814 114.316 29.7456 114.199 29.6968C114.087 29.6479 113.965 29.6235 113.833 29.6235H109.241C108.909 29.6235 108.596 29.5601 108.303 29.4331C108.01 29.3062 107.754 29.1328 107.534 28.9131C107.314 28.6885 107.141 28.4272 107.014 28.1294C106.887 27.8315 106.824 27.5142 106.824 27.1772C106.824 26.8501 106.887 26.54 107.014 26.2471C107.141 25.9492 107.314 25.6904 107.534 25.4707C107.754 25.251 108.01 25.0776 108.303 24.9507C108.596 24.8188 108.909 24.7529 109.241 24.7529H115.708V26.2324H109.241C109.114 26.2324 108.992 26.2593 108.875 26.313C108.762 26.3618 108.665 26.4302 108.582 26.5181C108.499 26.6011 108.433 26.7012 108.384 26.8184C108.335 26.9307 108.311 27.0503 108.311 27.1772C108.311 27.3091 108.335 27.4336 108.384 27.5508C108.433 27.6631 108.499 27.7632 108.582 27.8511C108.665 27.9341 108.762 28 108.875 28.0488C108.992 28.0977 109.114 28.1221 109.241 28.1221H113.833C114.17 28.1221 114.485 28.188 114.778 28.3198C115.076 28.4468 115.332 28.6226 115.547 28.8472C115.767 29.0669 115.94 29.3257 116.067 29.6235C116.194 29.9214 116.257 30.2363 116.257 30.5684ZM65.3027 51H58.5425C57.8149 51 57.1533 50.8633 56.5576 50.5898C55.9619 50.3164 55.4517 49.9429 55.0269 49.4692C54.6069 48.9956 54.2822 48.439 54.0527 47.7993C53.8232 47.1597 53.7085 46.4761 53.7085 45.7485C53.7085 45.0259 53.8232 44.3472 54.0527 43.7124C54.2822 43.0728 54.6069 42.5161 55.0269 42.0425C55.4517 41.564 55.9619 41.188 56.5576 40.9146C57.1533 40.6362 57.8149 40.4971 58.5425 40.4971H65.3027V41.9985H58.5425C58.0249 41.9985 57.5586 42.0986 57.1436 42.2988C56.7334 42.4941 56.3843 42.7627 56.0962 43.1045C55.813 43.4414 55.5933 43.8369 55.437 44.291C55.2856 44.7451 55.21 45.231 55.21 45.7485C55.21 46.2661 55.2856 46.7544 55.437 47.2134C55.5933 47.6675 55.813 48.0654 56.0962 48.4072C56.3843 48.7441 56.7334 49.0103 57.1436 49.2056C57.5586 49.4009 58.0249 49.4985 58.5425 49.4985H63.8013V46.5029H57.4438V45.0015H65.3027V51ZM76.2378 42.7529V46.8765C76.2378 47.4478 76.1304 47.9849 75.9155 48.4878C75.7007 48.9858 75.4053 49.4229 75.0293 49.7988C74.6582 50.1699 74.2236 50.4629 73.7256 50.6777C73.2275 50.8926 72.6953 51 72.1289 51H71.3013C70.7349 51 70.2026 50.8926 69.7046 50.6777C69.2065 50.458 68.7695 50.1626 68.3936 49.7915C68.0225 49.4155 67.7295 48.9785 67.5146 48.4805C67.2998 47.9775 67.1924 47.4429 67.1924 46.8765V42.7529H68.6938V46.8765C68.6938 47.2378 68.7622 47.5796 68.8989 47.9019C69.0356 48.2192 69.2212 48.4976 69.4556 48.7368C69.6948 48.9712 69.9707 49.1567 70.2832 49.2935C70.6006 49.4302 70.9399 49.4985 71.3013 49.4985H72.1289C72.4902 49.4985 72.8296 49.4302 73.147 49.2935C73.4644 49.1567 73.7402 48.9712 73.9746 48.7368C74.209 48.4976 74.3945 48.2192 74.5312 47.9019C74.668 47.5796 74.7363 47.2378 74.7363 46.8765V42.7529H76.2378ZM79.7534 51H78.2666V42.7529H79.7534V51ZM91.6992 46.8472C91.6992 47.4282 91.6064 47.9727 91.4209 48.4805C91.2354 48.9834 90.9741 49.4229 90.6372 49.7988C90.3003 50.1699 89.8926 50.4629 89.4141 50.6777C88.9404 50.8926 88.4155 51 87.8394 51H84.1553V49.4839H87.8394C88.2056 49.4839 88.5327 49.4155 88.8208 49.2788C89.1089 49.1421 89.353 48.9565 89.5532 48.7222C89.7583 48.4829 89.9146 48.2046 90.022 47.8872C90.1294 47.5649 90.1831 47.2183 90.1831 46.8472C90.1831 46.481 90.1294 46.1392 90.022 45.8218C89.9146 45.5044 89.7583 45.2285 89.5532 44.9941C89.353 44.7598 89.1089 44.5742 88.8208 44.4375C88.5327 44.3008 88.2056 44.2324 87.8394 44.2324H83.4448V51H81.9141V42.7236H87.8394C88.4155 42.7236 88.9404 42.8311 89.4141 43.0459C89.8926 43.2607 90.3003 43.5537 90.6372 43.9248C90.9741 44.2959 91.2354 44.7329 91.4209 45.2358C91.6064 45.7339 91.6992 46.271 91.6992 46.8472ZM101.982 51H93.3691V42.7236H101.982V44.2324H94.8853V49.4839H101.982V51ZM101.023 47.5796H95.5957V46.0635H101.023V47.5796Z" fill="#A9E0FF"/>
<defs>
<filter id="filter0_i_185_517" x="11.0005" y="10.0002" width="128" height="58.9991" filterUnits="userSpaceOnUse" color-interpolation-filters="sRGB">
<feFlood flood-opacity="0" result="BackgroundImageFix"/>
<feBlend mode="normal" in="SourceGraphic" in2="BackgroundImageFix" result="shape"/>
<feColorMatrix in="SourceAlpha" type="matrix" values="0 0 0 0 0 0 0 0 0 0 0 0 0 0 0 0 0 0 127 0" result="hardAlpha"/>
<feOffset dy="4"/>
<feGaussianBlur stdDeviation="2"/>
<feComposite in2="hardAlpha" operator="arithmetic" k2="-1" k3="1"/>
<feColorMatrix type="matrix" values="0 0 0 0 0 0 0 0 0 0 0 0 0 0 0 0 0 0 0.25 0"/>
<feBlend mode="normal" in2="shape" result="effect1_innerShadow_185_517"/>
</filter>
</defs>
</svg>
