<svg width="46" height="46" viewBox="0 0 46 46" fill="none" xmlns="http://www.w3.org/2000/svg">
<path d="M7.75477 38.069C10.1194 36.4534 12.5171 35.1756 14.9478 34.2356C17.3785 33.2957 20.0626 32.8257 23 32.8257C25.9374 32.8257 28.6215 33.2957 31.0522 34.2356C33.4829 35.1756 35.8806 36.4534 38.2452 38.069C40.1105 36.1449 41.6049 33.9112 42.7284 31.3678C43.852 28.8244 44.4138 26.0352 44.4138 23C44.4138 17.0517 42.3319 11.9957 38.1681 7.8319C34.0043 3.6681 28.9483 1.58621 23 1.58621C17.0517 1.58621 11.9957 3.6681 7.8319 7.8319C3.6681 11.9957 1.58621 17.0517 1.58621 23C1.58621 26.0352 2.14799 28.8244 3.27155 31.3678C4.39511 33.9112 5.88952 36.1449 7.75477 38.069ZM22.9889 23.7931C20.8814 23.7931 19.1079 23.0697 17.6686 21.623C16.2293 20.1763 15.5096 18.3992 15.5096 16.2916C15.5096 14.1841 16.233 12.4106 17.6797 10.9713C19.1264 9.53191 20.9035 8.81224 23.0111 8.81224C25.1186 8.81224 26.8921 9.53559 28.3314 10.9823C29.7707 12.4291 30.4904 14.2062 30.4904 16.3137C30.4904 18.4213 29.767 20.1948 28.3203 21.6341C26.8736 23.0734 25.0965 23.7931 22.9889 23.7931ZM23.0206 46C19.7904 46 16.7806 45.4052 13.9911 44.2155C11.2017 43.0259 8.76727 41.3883 6.68798 39.3027C4.60864 37.2171 2.97414 34.7862 1.78448 32.0099C0.594828 29.2335 0 26.2337 0 23.0103C0 19.787 0.594828 16.7837 1.78448 14.0005C2.97414 11.2173 4.61174 8.78289 6.6973 6.6973C8.78289 4.61174 11.2138 2.97414 13.9901 1.78448C16.7665 0.594828 19.7663 0 22.9897 0C26.213 0 29.2163 0.594828 31.9995 1.78448C34.7827 2.97414 37.2171 4.61174 39.3027 6.6973C41.3883 8.78289 43.0259 11.2178 44.2155 14.0019C45.4052 16.7861 46 19.7785 46 22.9794C46 26.2096 45.4052 29.2194 44.2155 32.0089C43.0259 34.7983 41.3883 37.2327 39.3027 39.312C37.2171 41.3914 34.7822 43.0259 31.9981 44.2155C29.2139 45.4052 26.2215 46 23.0206 46ZM23 44.4138C25.4968 44.4138 27.99 43.9622 30.4794 43.0589C32.9689 42.1557 35.1316 40.8742 36.9674 39.2145C35.1316 37.7458 33.0276 36.5782 30.6556 35.7117C28.2837 34.8452 25.7318 34.4119 23 34.4119C20.2682 34.4119 17.7053 34.8341 15.3113 35.6786C12.9173 36.5231 10.8391 37.7018 9.07661 39.2145C10.8831 40.8742 13.0311 42.1557 15.5206 43.0589C18.01 43.9622 20.5032 44.4138 23 44.4138ZM23.0061 22.2069C24.6764 22.2069 26.077 21.6394 27.2079 20.5044C28.3388 19.3694 28.9042 17.9668 28.9042 16.2966C28.9042 14.6263 28.3367 13.2257 27.2017 12.0948C26.0667 10.9639 24.6641 10.3984 22.9939 10.3984C21.3236 10.3984 19.923 10.966 18.7921 12.101C17.6612 13.236 17.0958 14.6386 17.0958 16.3089C17.0958 17.9791 17.6633 19.3796 18.7983 20.5105C19.9333 21.6414 21.3359 22.2069 23.0061 22.2069Z" fill="black"/>
</svg>
